<?xml version="1.0" standalone="no"?>
<!DOCTYPE svg PUBLIC "-//W3C//DTD SVG 20010904//EN"
 "http://www.w3.org/TR/2001/REC-SVG-20010904/DTD/svg10.dtd">
<svg version="1.0" xmlns="http://www.w3.org/2000/svg"
 width="1026.000000pt" height="1026.000000pt" viewBox="0 0 1026.000000 1026.000000"
 preserveAspectRatio="xMidYMid meet">

<g transform="translate(0.000000,1026.000000) scale(0.100500,-0.100000)"
fill="#000000" stroke="none">
<path d="M4935 8950 c-16 -4 -67 -8 -113 -9 -189 -3 -633 -109 -734 -176 -21
-14 -41 -25 -44 -25 -4 0 -21 -11 -38 -24 -17 -13 -50 -33 -73 -44 -23 -12
-58 -42 -79 -66 -20 -24 -42 -42 -49 -40 -12 5 -32 -14 -50 -49 -5 -11 -33
-34 -62 -51 -53 -32 -128 -100 -244 -222 -37 -38 -89 -87 -117 -109 -27 -22
-60 -56 -73 -75 -13 -19 -31 -44 -40 -55 -35 -41 -135 -237 -184 -360 -12 -30
-14 -105 -5 -149 6 -28 4 -56 -7 -95 -8 -31 -15 -63 -14 -71 1 -8 4 -92 5
-186 2 -93 6 -201 10 -240 6 -64 14 -194 36 -559 4 -82 12 -169 16 -192 6 -39
5 -43 -13 -43 -11 0 -31 9 -45 19 -51 41 -121 71 -163 71 -74 0 -141 -66 -160
-157 -8 -41 7 -43 22 -4 9 24 16 30 42 29 16 -1 37 5 46 12 12 10 15 10 15 0
0 -7 8 -10 20 -7 11 3 17 1 14 -4 -3 -5 2 -12 10 -15 20 -8 21 -30 2 -37 -18
-7 -10 -43 12 -52 10 -4 22 1 30 12 8 11 9 19 2 21 -6 2 -7 10 0 22 8 14 16
16 42 10 57 -13 86 -28 98 -50 6 -11 17 -20 25 -20 8 0 18 -20 25 -53 11 -49
10 -58 -10 -103 -20 -44 -23 -47 -30 -28 -5 12 -13 25 -19 29 -6 3 -11 17 -11
30 0 13 -4 27 -10 30 -15 10 -12 -107 4 -146 9 -21 11 -41 6 -55 -6 -16 -5
-26 6 -34 7 -7 14 -21 14 -31 0 -10 5 -21 10 -24 6 -4 8 -9 6 -13 -2 -4 0 -65
5 -137 5 -71 7 -135 5 -142 -8 -20 -95 27 -102 55 -4 13 -14 22 -26 22 -17 0
-18 -3 -8 -15 10 -12 9 -16 -5 -21 -20 -8 -15 -50 15 -112 22 -45 35 -57 65
-57 12 0 21 -8 23 -20 2 -11 20 -36 39 -56 31 -33 36 -47 50 -130 8 -52 16
-106 17 -120 0 -14 7 -33 14 -42 8 -9 20 -63 28 -119 50 -361 91 -512 194
-717 l59 -116 10 -146 c17 -226 17 -222 -23 -242 -107 -51 -251 -159 -394
-296 -47 -45 -73 -62 -100 -66 -62 -9 -105 -37 -140 -90 -48 -70 -96 -178
-122 -270 -19 -68 -20 -85 -11 -139 23 -131 13 -144 -138 -195 -56 -19 -101
-37 -101 -41 0 -4 -10 -10 -22 -13 -13 -3 -55 -17 -95 -31 -39 -14 -91 -27
-115 -28 -23 -1 -48 -7 -55 -14 -7 -6 -34 -15 -60 -18 -70 -11 -125 -29 -243
-82 -119 -53 -208 -87 -295 -113 -33 -10 -99 -39 -145 -63 -47 -25 -96 -49
-110 -53 -46 -14 -110 -47 -110 -57 0 -36 367 -421 574 -602 1111 -973 2553
-1416 4022 -1236 993 122 1944 542 2705 1196 222 191 596 577 587 606 -2 6
-62 40 -133 77 -152 79 -201 106 -234 132 -13 11 -28 19 -34 19 -6 0 -66 27
-134 60 -67 33 -128 60 -133 60 -18 0 -105 47 -119 64 -8 9 -25 16 -39 16 -14
0 -53 9 -86 20 -34 10 -101 31 -151 46 -49 15 -121 38 -160 51 -38 14 -99 33
-135 44 -36 10 -103 30 -150 44 -47 14 -152 43 -235 65 -82 21 -184 47 -225
58 -41 11 -109 28 -150 37 -113 24 -112 23 -122 167 -15 198 -92 387 -195 478
-38 33 -53 40 -87 40 -36 0 -50 7 -97 48 -29 26 -77 65 -106 85 -58 42 -65 39
-69 -32 -2 -25 -6 -64 -9 -86 -4 -22 -8 -58 -11 -80 -7 -60 -27 -135 -36 -135
-4 0 -5 -7 -2 -15 5 -11 2 -13 -10 -9 -9 3 -16 2 -16 -4 0 -6 6 -12 12 -14 9
-3 3 -13 -14 -29 -26 -22 -88 -129 -88 -150 0 -11 -49 -59 -60 -59 -4 0 -7 -7
-6 -16 1 -13 -9 -17 -44 -18 -25 -1 -47 -3 -50 -6 -3 -3 -19 -13 -37 -22 -22
-11 -33 -13 -36 -5 -2 8 -14 8 -43 -1 -21 -7 -77 -14 -124 -17 -112 -5 -184
-15 -191 -26 -3 -6 -16 -11 -27 -12 -12 -1 -22 -4 -22 -7 0 -3 -16 -6 -35 -6
-21 0 -42 -7 -54 -19 -34 -36 -61 -55 -76 -55 -9 0 -18 -7 -21 -15 -3 -8 -22
-24 -42 -36 -21 -12 -51 -38 -69 -59 -18 -20 -45 -40 -60 -43 -15 -3 -45 -17
-65 -30 -20 -14 -39 -23 -42 -19 -3 3 -6 -6 -6 -19 0 -13 -16 -41 -36 -62 -30
-32 -43 -39 -80 -41 -25 -1 -47 1 -50 6 -3 4 -12 8 -20 8 -15 0 -94 77 -94 91
0 11 -138 149 -149 149 -19 0 -45 56 -46 100 0 30 -5 44 -13 43 -21 -5 -14 45
8 57 11 6 20 17 20 25 0 8 -9 19 -20 25 -30 16 -24 30 13 31 28 0 29 1 11 9
-30 12 -38 77 -11 86 10 3 24 1 30 -5 14 -14 47 -14 47 -1 0 7 63 10 188 8
247 -4 395 2 404 15 4 6 27 11 52 9 26 -1 46 3 46 8 0 6 5 10 11 10 5 0 7 -5
4 -10 -6 -10 45 -15 117 -11 25 2 39 -3 46 -15 7 -13 13 -14 28 -5 18 10 18
11 -4 17 -18 5 -20 9 -11 20 18 22 49 18 46 -6 -2 -11 -9 -26 -15 -32 -14 -14
-16 -38 -4 -38 5 0 17 9 27 20 10 11 20 18 23 15 3 -3 13 13 23 35 13 29 29
45 54 56 35 14 50 29 18 17 -16 -6 -16 -5 -4 10 7 9 21 17 30 17 9 0 33 19 53
43 20 23 53 60 72 83 20 23 33 44 29 47 -3 4 2 9 11 13 9 3 16 13 16 21 0 8 5
11 10 8 6 -3 10 -2 10 4 0 13 56 71 68 71 5 0 29 21 54 48 24 26 68 69 96 95
72 67 69 87 -8 46 -32 -18 -57 -36 -54 -41 3 -5 -7 -6 -22 -2 -22 6 -26 4 -21
-9 4 -11 -7 -23 -39 -42 -24 -14 -44 -30 -44 -35 0 -6 -13 -10 -30 -10 -22 0
-28 -4 -24 -15 4 -9 0 -15 -10 -15 -9 0 -16 -4 -16 -9 0 -5 -17 -11 -39 -15
-28 -4 -40 -12 -44 -27 -4 -15 -12 -20 -29 -18 -13 2 -28 0 -34 -4 -7 -4 -17
0 -24 8 -14 17 -30 20 -30 6 0 -18 31 -40 47 -34 11 4 14 3 9 -6 -4 -6 -16 -9
-27 -6 -11 4 -19 2 -19 -4 0 -6 -4 -11 -10 -11 -5 0 -10 9 -10 20 0 11 -4 20
-9 20 -6 0 -7 -16 -4 -36 6 -34 4 -36 -16 -29 -12 4 -21 2 -21 -4 0 -6 -9 -11
-20 -11 -11 0 -20 -5 -20 -11 0 -6 -7 -9 -15 -5 -10 4 -15 -1 -15 -14 0 -30
-19 -24 -26 8 -3 15 -7 30 -7 35 -4 18 -47 -26 -47 -48 0 -22 -3 -24 -32 -18
-27 5 -30 4 -24 -12 4 -12 0 -24 -13 -37 -25 -22 -32 -23 -24 -2 4 12 2 15 -8
12 -8 -3 -14 -11 -14 -19 0 -8 -4 -14 -10 -14 -5 0 -16 -4 -22 -8 -8 -5 -13
-3 -13 5 -1 9 -5 7 -14 -4 -7 -10 -23 -18 -35 -18 -11 0 -21 -5 -21 -11 0 -7
-20 -9 -59 -6 -33 2 -75 -1 -95 -8 -28 -10 -40 -10 -60 0 -19 10 -26 10 -29 2
-2 -8 -28 -12 -68 -12 -35 1 -67 -4 -71 -10 -5 -6 -11 -5 -17 5 -7 9 -6 17 1
21 14 9 -6 21 -24 14 -8 -3 -30 -7 -51 -8 -28 -3 -37 0 -37 12 0 9 -5 23 -11
31 -8 12 -9 10 -4 -7 4 -15 2 -24 -7 -24 -36 -5 -54 -3 -59 3 -3 5 -18 9 -34
10 -17 2 -30 9 -33 20 -5 21 -15 22 -41 6 -27 -16 -68 3 -73 34 -2 17 -9 23
-25 22 -29 -1 -30 24 -1 35 16 6 18 10 9 16 -8 4 -17 2 -22 -6 -4 -7 -11 -10
-15 -6 -10 10 28 37 44 32 8 -3 26 -8 40 -11 26 -6 26 -5 -4 14 -18 11 -35 25
-38 31 -4 6 -16 11 -27 11 -11 0 -19 7 -19 17 0 9 -3 13 -6 10 -13 -13 -59 64
-55 91 2 10 -2 11 -18 2 -15 -7 -21 -7 -21 0 0 6 11 15 24 22 33 15 42 38 14
38 -21 0 -21 0 -2 21 15 18 16 23 5 27 -11 3 -9 9 8 21 14 11 20 23 16 34 -6
13 -16 8 -56 -33 -27 -27 -49 -56 -49 -65 0 -8 -4 -15 -10 -15 -5 0 -6 8 -3
17 5 13 2 15 -11 10 -10 -4 -19 -1 -22 7 -3 7 -18 13 -34 14 -24 0 -30 -4 -31
-21 l0 -22 -11 23 c-7 13 -18 21 -27 19 -9 -1 -25 6 -36 17 -11 12 -26 21 -32
21 -7 0 -13 3 -13 8 0 4 0 11 0 17 0 5 6 7 14 4 8 -3 17 0 21 6 12 20 -3 23
-34 7 -27 -13 -30 -13 -36 2 -6 15 -8 14 -19 -1 -7 -10 -19 -18 -26 -18 -9 0
-8 5 4 19 15 16 15 19 1 31 -11 9 -18 10 -29 1 -8 -7 -16 -8 -18 -4 -1 5 -18
19 -36 32 -31 22 -71 81 -55 81 5 0 -7 9 -24 20 -18 11 -33 25 -33 30 0 6 -4
8 -10 5 -6 -3 -7 1 -4 9 4 11 0 16 -14 16 -24 0 -53 31 -34 37 19 7 14 33 -7
33 -30 0 -76 28 -77 47 -2 32 -15 63 -25 58 -5 -4 -9 1 -9 9 0 9 -4 16 -10 16
-5 0 -10 5 -10 10 0 6 7 10 15 10 20 0 19 16 -2 24 -9 4 -20 1 -24 -6 -5 -8
-10 -3 -14 15 -4 15 -11 27 -15 27 -4 0 -10 18 -13 39 -3 23 -16 51 -31 68
-27 28 -34 53 -16 53 16 0 12 42 -7 62 -15 17 -15 18 13 19 24 1 25 3 7 6 -27
5 -27 3 -8 39 13 25 13 29 1 32 -8 2 -20 17 -27 35 -7 18 -18 35 -23 39 -7 5
-7 8 2 8 6 0 12 5 12 11 0 5 -4 7 -10 4 -5 -3 -10 1 -10 10 0 9 5 13 10 10 14
-8 24 21 13 37 -10 16 -12 58 -2 52 4 -2 10 0 14 6 3 5 0 10 -8 10 -16 0 -30
27 -21 41 3 5 13 9 22 9 16 1 16 1 0 11 -10 5 -18 17 -18 24 0 18 -17 20 -23
3 -3 -8 -9 -3 -15 12 -7 18 -6 29 4 40 9 10 10 20 4 30 -13 21 -12 30 2 27 8
-1 13 13 13 41 1 23 -2 42 -7 42 -4 0 -8 5 -8 10 0 6 8 10 17 10 14 0 13 3 -5
16 -17 12 -22 25 -22 60 0 36 -3 44 -19 44 -21 0 -35 38 -25 64 4 12 2 15 -9
10 -15 -6 -18 10 -5 31 10 17 0 127 -12 135 -15 9 -5 78 14 100 8 8 17 41 21
72 5 46 3 61 -9 74 -20 20 -20 43 -1 50 22 9 18 24 -5 24 -20 0 -28 16 -11 22
13 4 22 58 11 58 -14 0 -5 51 11 61 8 5 10 9 4 9 -12 0 -16 130 -4 130 5 0 9
13 9 29 0 16 4 31 8 33 16 6 52 120 46 144 -4 16 -1 26 9 30 8 3 18 17 22 32
9 37 39 64 54 49 8 -8 11 -6 11 9 0 11 -5 25 -12 32 -9 9 -6 12 15 12 26 0 40
20 15 20 -7 0 -5 5 5 11 9 6 14 15 11 21 -9 14 15 28 49 28 15 0 27 5 27 10 0
6 -7 10 -15 10 -8 0 -15 6 -15 14 0 17 31 29 52 21 9 -4 18 0 21 9 5 12 12 13
36 5 16 -6 40 -9 53 -6 20 4 20 4 -4 6 -45 2 -32 19 20 26 26 4 57 13 69 21
12 8 28 11 36 9 7 -3 29 1 48 9 47 20 269 19 284 -1 6 -7 39 -16 75 -19 36 -3
74 -9 85 -14 11 -5 41 -15 68 -24 46 -14 48 -14 75 9 25 22 25 24 5 18 -14 -3
-23 -1 -23 6 0 6 5 11 10 11 6 0 10 7 10 15 0 23 16 18 39 -11 18 -23 21 -24
21 -7 0 10 -9 29 -20 41 -25 27 -26 36 -1 22 25 -13 40 6 18 23 -8 7 -17 25
-20 41 -4 22 0 30 15 34 12 3 17 10 14 19 -4 8 4 23 16 34 l23 18 -26 1 c-29
0 -55 -23 -44 -40 11 -17 -9 -11 -49 17 -37 25 -47 26 -160 27 -67 0 -133 -3
-148 -7 -22 -6 -28 -4 -28 8 0 8 -7 15 -16 15 -14 0 -15 2 -3 17 13 15 11 16
-16 10 -18 -3 -40 0 -55 8 -14 8 -19 14 -12 15 6 0 12 5 12 11 0 6 -8 9 -17 7
-12 -2 -17 -11 -15 -25 2 -16 -2 -21 -17 -20 -11 0 -18 4 -15 8 2 4 -8 9 -23
11 -40 5 -37 21 8 42 30 14 38 21 29 30 -8 8 -13 7 -20 -4 -5 -8 -12 -11 -16
-8 -10 11 4 40 16 33 6 -3 13 1 17 10 3 10 0 21 -8 26 -11 7 -9 9 8 9 16 0 20
5 16 20 -4 14 0 20 12 20 13 0 16 6 13 25 -4 17 -1 25 9 25 7 0 16 7 19 15 4
8 10 12 15 10 5 -3 22 1 39 10 32 16 41 29 14 18 -14 -5 -14 -3 -2 17 10 18
10 24 1 27 -8 3 -13 21 -13 43 0 21 -6 41 -12 43 -10 4 -9 8 2 16 12 9 10 11
-12 7 -18 -3 -28 1 -32 11 -5 11 -15 14 -39 9 -25 -5 -36 -2 -50 14 -25 30
-22 68 6 73 21 3 21 4 2 11 -35 13 -47 21 -46 31 1 6 6 11 11 11 6 1 12 3 15
4 6 3 12 5 43 15 16 5 21 13 17 25 -8 24 4 50 24 50 11 0 12 3 4 8 -16 10 -3
29 22 33 12 3 21 14 23 27 4 28 19 28 28 0 6 -20 7 -20 17 -3 7 14 7 20 -1 23
-7 2 -12 8 -12 13 0 6 5 7 10 4 9 -6 14 8 11 28 -8 46 -6 53 13 67 12 8 23 15
26 15 3 1 16 7 29 14 14 8 21 9 17 2 -4 -6 -2 -11 3 -11 6 0 11 15 11 34 0 19
5 38 10 41 6 4 8 10 5 15 -6 10 19 20 51 20 27 0 30 10 12 28 -10 10 -10 15 2
22 8 5 15 17 15 27 0 14 9 18 48 20 28 1 54 9 63 18 18 18 35 16 42 -4 3 -9
-2 -11 -17 -6 -11 3 -21 2 -21 -3 0 -11 69 -26 78 -17 4 3 1 10 -7 14 -10 7
-9 10 3 14 12 5 16 0 16 -16 0 -16 3 -18 9 -8 6 9 23 12 65 7 45 -4 56 -3 56
9 0 8 3 15 8 15 4 0 52 3 107 6 149 8 159 8 181 -1 32 -14 118 -12 130 3 8 11
18 12 47 4 32 -9 36 -8 39 11 2 11 12 22 23 24 58 10 95 11 100 2 12 -18 24
-8 19 16 -5 27 5 32 24 13 6 -6 29 -13 49 -14 113 -7 287 -35 303 -49 9 -8 24
-13 33 -9 9 3 25 -3 38 -15 24 -22 54 -27 64 -11 4 6 11 8 16 4 5 -3 6 -10 3
-16 -5 -7 0 -9 14 -6 28 8 96 -8 148 -32 22 -11 49 -20 60 -20 20 0 105 -40
131 -62 13 -11 13 -13 -2 -18 -13 -5 -4 -12 34 -29 29 -12 55 -29 58 -36 3 -8
12 -15 19 -15 8 0 17 -7 21 -16 3 -8 11 -13 18 -10 8 3 26 -6 42 -20 15 -14
36 -23 46 -20 9 2 15 0 12 -4 -3 -5 -1 -11 5 -15 5 -3 10 -1 10 5 0 21 53 1
78 -28 33 -38 49 -72 55 -112 3 -19 10 -50 16 -69 7 -23 7 -38 1 -46 -6 -7 -8
-20 -4 -29 4 -10 1 -16 -9 -16 -12 0 -15 -11 -13 -53 1 -29 5 -58 9 -64 4 -6
10 -31 13 -55 4 -23 13 -53 22 -66 12 -18 13 -26 3 -31 -6 -4 -9 -15 -6 -23 4
-9 0 -29 -9 -45 -9 -19 -11 -34 -5 -44 5 -8 9 -26 9 -41 0 -15 4 -29 10 -33 5
-3 7 -12 3 -20 -9 -25 18 -77 64 -124 24 -24 43 -50 43 -58 0 -7 4 -13 8 -13
5 0 17 -18 28 -40 10 -22 24 -40 31 -40 6 0 19 -23 28 -51 14 -42 17 -89 16
-270 -1 -128 3 -219 8 -219 5 0 12 30 15 68 6 68 37 231 63 332 18 72 34 151
43 225 4 33 13 89 19 125 10 61 31 223 31 245 0 6 -2 37 -5 70 -3 33 -7 139
-10 235 -7 266 -9 286 -49 393 -46 128 -86 201 -147 273 -44 52 -69 103 -69
142 0 6 -5 12 -11 12 -12 0 -131 83 -148 104 -20 24 -54 119 -57 156 -1 19 -2
41 -3 48 0 6 -7 12 -15 12 -8 0 -35 16 -60 35 -26 19 -52 35 -59 35 -6 0 -39
15 -72 34 -94 52 -137 73 -185 92 -48 19 -140 77 -205 129 -22 18 -51 36 -65
40 -14 4 -66 27 -117 51 -50 24 -95 44 -100 44 -4 0 -33 13 -63 29 -30 16 -91
36 -135 44 -87 17 -449 29 -500 17z m202 -1036 c-3 -3 -12 -4 -19 -1 -8 3 -5
6 6 6 11 1 17 -2 13 -5z m-1222 -544 c3 -5 1 -10 -4 -10 -6 0 -11 5 -11 10 0
6 2 10 4 10 3 0 8 -4 11 -10z m136 -227 c13 -17 13 -17 -6 -3 -11 8 -22 16
-24 17 -2 2 0 3 6 3 6 0 17 -8 24 -17z m379 -533 c0 -5 -5 -10 -11 -10 -5 0
-7 5 -4 10 3 6 8 10 11 10 2 0 4 -4 4 -10z m5 -190 c3 -5 -1 -10 -9 -10 -9 0
-16 5 -16 10 0 6 4 10 9 10 6 0 13 -4 16 -10z m-185 -2950 c0 -5 -5 -10 -11
-10 -5 0 -7 5 -4 10 3 6 8 10 11 10 2 0 4 -4 4 -10z m-90 -26 c0 -2 -7 -4 -15
-4 -8 0 -15 4 -15 10 0 5 7 7 15 4 8 -4 15 -8 15 -10z m-385 -34 c21 0 43 -12
73 -40 24 -21 41 -44 38 -49 -4 -6 3 -15 14 -21 15 -8 19 -17 14 -35 -5 -22
-3 -25 18 -25 24 0 68 -41 95 -87 10 -17 9 -22 -2 -27 -24 -9 -17 -23 20 -40
34 -16 40 -44 8 -31 -14 5 -14 3 -2 -11 7 -9 24 -20 38 -25 l24 -10 -32 -17
c-18 -10 -33 -22 -33 -27 1 -23 -19 -33 -52 -25 -19 4 -40 4 -47 0 -16 -11
-39 -1 -39 16 0 8 -10 14 -25 14 -14 0 -25 -4 -25 -10 0 -5 -4 -10 -10 -10 -5
0 -10 6 -10 14 0 8 -15 19 -32 26 -18 7 -27 14 -20 17 6 2 12 9 12 14 0 6 -5
7 -11 3 -8 -5 -10 1 -7 18 4 20 -1 27 -26 38 -17 8 -25 15 -19 17 8 3 6 13 -6
34 -15 25 -17 45 -13 132 2 56 9 110 14 120 6 13 5 17 -7 17 -16 0 -20 12 -8
24 4 3 11 2 17 -4 5 -5 24 -10 41 -10z m506 -67 c13 -16 12 -17 -3 -4 -17 13
-22 21 -14 21 2 0 10 -8 17 -17z m-584 -50 c-3 -10 -5 -2 -5 17 0 19 2 27 5
18 2 -10 2 -26 0 -35z m537 32 c3 -8 1 -15 -4 -15 -6 0 -10 4 -10 9 0 5 -8 12
-17 14 -14 4 -13 5 3 6 12 0 24 -6 28 -14z m116 -80 c0 -8 -7 -15 -15 -15 -8
0 -15 -7 -15 -15 0 -8 -4 -15 -10 -15 -16 0 -12 22 8 41 21 22 32 23 32 4z
m1110 -75 c0 -11 -4 -20 -10 -20 -5 0 -10 9 -10 20 0 11 5 20 10 20 6 0 10 -9
10 -20z m1310 -1751 c0 -128 -74 -461 -118 -529 -9 -14 -22 -36 -30 -50 -12
-22 -13 -18 -7 45 4 39 13 81 20 95 17 35 46 166 47 215 0 63 36 266 50 282
10 13 14 13 25 -3 7 -10 13 -35 13 -55z m-3831 -8 c15 -27 25 -147 13 -154
-11 -7 -28 52 -36 126 -6 48 5 62 23 28z m491 -266 c0 -25 -26 -46 -47 -38 -7
3 -13 18 -13 34 0 26 4 29 30 29 25 0 30 -4 30 -25z m2541 -87 c-37 -231 -42
-251 -57 -235 -7 7 -6 155 1 167 3 5 10 32 15 62 22 121 60 127 41 6z m-2842
39 c14 -18 39 -200 43 -314 2 -72 0 -94 -11 -98 -18 -7 -21 -3 -32 42 -28 121
-45 267 -41 351 2 34 21 43 41 19z"/>
<path d="M4335 7830 c3 -5 10 -10 16 -10 5 0 9 5 9 10 0 6 -7 10 -16 10 -8 0
-12 -4 -9 -10z"/>
<path d="M4020 6924 c0 -8 5 -12 10 -9 6 4 8 11 5 16 -9 14 -15 11 -15 -7z"/>
<path d="M5780 6629 c0 -7 -18 -10 -47 -8 -70 3 -93 0 -93 -13 0 -6 -34 -44
-76 -84 -60 -57 -75 -76 -69 -91 6 -16 8 -15 17 7 9 22 11 23 17 7 6 -17 8
-17 34 3 28 22 39 12 12 -10 -22 -18 -18 -33 7 -27 15 4 30 -1 44 -14 18 -16
26 -19 42 -10 11 6 66 13 123 17 57 3 140 9 185 13 84 8 201 -2 218 -19 14
-14 56 -12 56 3 0 8 3 9 8 1 4 -6 30 -10 57 -9 30 2 64 -4 85 -15 19 -9 48
-20 64 -24 15 -4 34 -12 42 -19 33 -30 43 -35 72 -42 38 -8 39 -2 11 49 -20
39 -20 39 0 33 17 -4 18 -2 8 13 -6 10 -15 16 -19 14 -4 -3 -8 0 -8 5 0 6 -7
11 -15 11 -8 0 -15 8 -15 18 0 9 -12 27 -27 39 -16 12 -53 41 -83 65 -70 56
-115 79 -163 84 -31 3 -38 1 -33 -11 6 -17 -9 -21 -19 -5 -3 6 -17 10 -30 10
-13 0 -27 5 -30 10 -7 11 -45 -5 -57 -24 -5 -8 -13 -8 -27 1 -21 13 -51 8 -51
-8 0 -5 8 -9 18 -10 12 0 13 -2 3 -6 -8 -3 -19 1 -26 10 -8 12 -35 17 -100 21
-48 3 -93 10 -98 15 -14 14 -37 14 -37 0z"/>
<path d="M5580 6620 c0 -5 5 -10 10 -10 6 0 10 5 10 10 0 6 -4 10 -10 10 -5 0
-10 -4 -10 -10z"/>
<path d="M5516 6530 c-45 -48 -40 -50 19 -10 52 36 63 50 38 50 -11 0 -36 -18
-57 -40z"/>
<path d="M3985 6242 c-60 -8 -122 -14 -137 -14 -16 -1 -28 -5 -28 -9 0 -5 -9
-9 -19 -9 -11 0 -23 -4 -26 -10 -3 -5 -13 -10 -21 -10 -9 0 -30 -11 -48 -25
-20 -15 -40 -23 -50 -19 -9 3 -16 1 -16 -5 0 -6 5 -11 11 -11 8 0 7 -5 -1 -15
-7 -9 -19 -14 -26 -11 -9 3 -11 -1 -7 -12 6 -14 4 -15 -9 -4 -12 10 -18 9 -28
-3 -11 -13 -10 -14 6 -8 17 6 17 5 5 -10 -16 -20 -37 -22 -45 -4 -3 6 -3 1 0
-12 4 -16 3 -21 -5 -17 -6 4 -11 2 -11 -4 0 -7 9 -14 20 -17 16 -4 17 -7 5
-19 -7 -8 -21 -14 -30 -14 -23 0 -13 -22 16 -37 l24 -13 -24 0 -24 0 28 -24
c15 -13 35 -22 43 -18 8 3 21 -3 29 -14 11 -15 15 -16 22 -5 7 11 11 10 19 -5
14 -25 136 -35 126 -10 -3 9 -1 16 5 16 6 0 11 6 11 14 0 10 15 13 54 12 31 0
60 5 70 13 10 9 28 11 51 7 25 -5 35 -3 35 6 0 11 2 11 9 0 5 -9 18 -11 47 -4
21 4 62 6 89 4 28 -2 60 -5 73 -5 15 -2 22 -8 22 -22 1 -20 30 -68 30 -49 0 5
4 3 9 -4 7 -11 11 -11 24 2 18 18 37 21 37 6 0 -7 16 -9 39 -6 22 2 50 -2 65
-9 15 -8 28 -10 31 -4 4 5 11 9 16 9 6 0 -2 -16 -16 -35 -27 -34 -26 -55 1
-55 8 0 14 -7 14 -16 0 -8 -4 -12 -10 -9 -5 3 -10 1 -10 -4 0 -6 5 -11 10 -11
6 0 10 -8 8 -17 -2 -14 5 -19 31 -21 21 -2 31 0 27 7 -4 7 -1 8 8 5 22 -8 -2
-43 -34 -50 -14 -3 -29 -7 -34 -8 -5 -1 -2 -8 6 -17 17 -17 31 -89 17 -89 -5
0 -9 -12 -8 -27 1 -39 -3 -50 -42 -123 -18 -36 -41 -88 -50 -117 -16 -50 -16
-51 4 -57 25 -6 105 3 130 16 9 5 17 16 18 26 0 9 3 12 5 6 10 -24 99 14 131
56 6 8 15 12 18 8 14 -14 54 44 75 110 7 23 19 47 27 53 17 15 17 53 -1 69 -8
6 -13 17 -10 25 3 7 1 16 -4 19 -5 3 -7 16 -5 28 2 13 -1 37 -8 53 -6 17 -13
39 -14 50 -4 36 -30 120 -39 126 -5 4 0 20 11 35 21 30 32 64 39 123 5 34 -23
131 -37 131 -4 0 -17 16 -28 36 -18 30 -26 35 -46 30 -20 -5 -25 -3 -25 14 0
29 -12 25 -49 -15 -34 -38 -79 -47 -101 -21 -6 8 -18 12 -26 9 -8 -3 -14 0
-14 6 0 6 -9 11 -20 11 -12 0 -38 9 -58 19 -84 43 -194 49 -407 23z m110 -12
c-3 -5 -16 -10 -28 -9 -21 0 -21 1 -2 9 28 12 37 12 30 0z m-58 -16 c-3 -3
-12 -4 -19 -1 -8 3 -5 6 6 6 11 1 17 -2 13 -5z m71 -96 c17 -17 15 -45 -4 -52
-20 -8 -44 10 -44 34 0 31 26 40 48 18z m236 -12 c28 -13 59 -26 69 -30 16 -5
25 -46 10 -46 -142 -9 -174 -8 -169 7 3 8 9 32 12 54 4 21 11 39 17 39 5 0 33
-11 61 -24z m226 -98 c0 -6 -7 -5 -15 2 -8 7 -15 17 -15 22 0 6 7 5 15 -2 8
-7 15 -17 15 -22z m-410 -68 c0 -5 -5 -10 -11 -10 -5 0 -7 5 -4 10 3 6 8 10
11 10 2 0 4 -4 4 -10z"/>
<path d="M5625 6195 c-27 -8 -53 -14 -57 -15 -3 0 -27 -16 -52 -35 -25 -19
-46 -32 -46 -29 0 3 -8 -2 -17 -12 -10 -10 -18 -21 -18 -25 0 -4 -3 -11 -7
-15 -5 -4 -8 -13 -8 -21 0 -17 27 -17 33 0 2 6 8 8 13 4 5 -5 1 -14 -9 -21 -9
-7 -17 -20 -17 -29 0 -9 -4 -19 -10 -22 -36 -22 42 -75 112 -75 27 0 38 -4 38
-15 0 -8 5 -15 10 -15 6 0 10 7 10 15 0 8 5 15 10 15 6 0 10 -5 10 -12 0 -9 3
-9 12 0 15 15 48 16 48 2 0 -5 -7 -10 -15 -10 -18 0 -19 -12 -3 -28 16 -16 28
-15 28 3 0 8 6 12 14 9 8 -3 17 -1 21 5 3 6 17 8 31 5 15 -4 24 -2 24 5 0 7 9
9 25 5 15 -4 25 -2 25 5 0 6 5 11 10 11 6 0 10 -15 10 -32 0 -24 3 -29 9 -19
11 17 62 21 68 6 5 -16 34 -15 57 1 11 7 31 10 47 7 21 -4 29 -2 29 8 1 10 4
8 11 -3 11 -20 55 -24 61 -7 5 16 87 17 96 2 7 -11 61 -15 135 -10 30 2 33 7
15 25 -9 9 -8 12 5 12 9 0 17 7 17 15 0 8 -4 15 -9 15 -5 0 -12 13 -16 29 -4
17 -31 51 -69 87 -71 66 -176 118 -261 128 l-50 7 29 -16 c15 -9 36 -15 45
-13 9 3 36 -8 61 -23 25 -16 59 -35 76 -43 34 -15 49 -32 36 -40 -5 -3 -21 6
-38 20 -18 16 -37 24 -51 21 -15 -3 -31 4 -47 19 -14 15 -44 28 -77 34 -29 6
-67 15 -84 20 -16 5 -51 12 -77 15 -46 6 -67 24 -30 26 27 2 -79 17 -123 17
-22 1 -62 -6 -90 -13z m61 -157 c0 -29 4 -64 9 -77 7 -21 6 -23 -16 -15 -13 5
-54 8 -91 7 -59 -2 -69 0 -78 18 -19 34 -2 55 68 87 98 45 107 44 108 -20z
m172 10 c25 -25 2 -55 -33 -42 -18 7 -20 40 -2 47 19 8 22 8 35 -5z m256 -70
c14 -20 14 -23 -1 -32 -24 -13 -103 -36 -103 -29 0 3 10 23 22 44 25 45 58 52
82 17z"/>
<path d="M5475 6140 c3 -5 8 -10 11 -10 2 0 4 5 4 10 0 6 -5 10 -11 10 -5 0
-7 -4 -4 -10z"/>
<path d="M2930 5970 c0 -5 5 -10 10 -10 6 0 10 5 10 10 0 6 -4 10 -10 10 -5 0
-10 -4 -10 -10z"/>
<path d="M6917 5950 c-26 -16 -54 -30 -62 -30 -11 0 -15 -11 -15 -37 0 -61 12
-68 51 -33 57 52 107 82 141 86 18 1 35 3 38 4 3 0 -6 9 -20 20 -36 28 -79 25
-133 -10z"/>
<path d="M2840 5858 c0 -19 2 -20 10 -8 13 19 13 30 0 30 -5 0 -10 -10 -10
-22z"/>
<path d="M4206 5872 c-3 -3 -6 -12 -6 -21 0 -12 2 -13 8 -3 5 7 16 10 25 6 9
-3 17 -2 17 4 0 11 -36 23 -44 14z"/>
<path d="M3510 5825 c0 -8 5 -15 10 -15 6 0 10 7 10 15 0 8 -4 15 -10 15 -5 0
-10 -7 -10 -15z"/>
<path d="M3780 5820 c0 -6 7 -10 15 -10 8 0 15 2 15 4 0 2 -7 6 -15 10 -8 3
-15 1 -15 -4z"/>
<path d="M5616 5806 c17 -8 55 -17 85 -20 l54 -7 -44 21 c-24 11 -62 20 -85
20 l-41 -1 31 -13z"/>
<path d="M2747 5803 c-10 -9 -9 -61 1 -67 5 -3 9 -25 9 -50 1 -34 -2 -43 -13
-39 -8 3 -14 11 -14 19 0 8 -4 14 -9 14 -5 0 0 -32 11 -71 10 -40 26 -120 34
-178 8 -58 19 -119 24 -136 5 -16 14 -57 20 -90 15 -82 49 -187 69 -214 20
-26 48 -19 57 14 3 13 16 32 30 44 18 16 23 28 20 53 -3 18 -5 36 -5 41 -1 4
-11 7 -23 7 -11 0 -36 11 -54 25 -38 29 -44 30 -44 9 0 -8 -4 -12 -10 -9 -5 3
-10 21 -10 39 0 18 -11 59 -24 92 -31 78 -43 240 -20 266 9 9 18 44 21 78 3
33 10 63 14 66 5 3 9 26 8 52 -1 43 -1 45 -11 20 -12 -35 -35 -36 -48 -3 -9
25 -21 31 -33 18z m53 -79 c0 -8 -4 -14 -10 -14 -5 0 -10 9 -10 21 0 11 5 17
10 14 6 -3 10 -13 10 -21z"/>
<path d="M7017 5792 c-22 -24 -21 -38 1 -60 22 -22 42 -18 42 9 0 10 7 19 15
19 9 0 15 9 15 25 0 21 -5 25 -28 25 -16 0 -36 -8 -45 -18z"/>
<path d="M6956 5731 c-19 -21 -12 -28 13 -12 7 5 12 14 9 21 -2 7 -10 4 -22
-9z"/>
<path d="M6861 5664 c0 -11 3 -14 6 -6 3 7 2 16 -1 19 -3 4 -6 -2 -5 -13z"/>
<path d="M6978 5625 c-9 -9 4 -55 13 -49 5 3 6 -2 3 -10 -3 -9 -1 -16 5 -16 6
0 11 14 11 30 0 21 -5 30 -16 30 -8 0 -12 5 -9 10 7 11 2 14 -7 5z"/>
<path d="M7010 5490 c0 -5 5 -10 10 -10 6 0 10 5 10 10 0 6 -4 10 -10 10 -5 0
-10 -4 -10 -10z"/>
<path d="M6852 5365 c0 -16 2 -22 5 -12 2 9 2 23 0 30 -3 6 -5 -1 -5 -18z"/>
<path d="M6838 5175 c-10 -13 -18 -27 -18 -32 0 -4 -11 -30 -25 -57 -13 -27
-22 -53 -19 -58 3 -5 -6 -25 -21 -44 -36 -47 -23 -56 18 -12 17 19 40 38 49
41 21 8 76 82 85 115 4 18 -1 30 -20 48 -14 13 -27 24 -29 24 -2 0 -11 -11
-20 -25z"/>
<path d="M4390 5164 c0 -8 5 -12 10 -9 6 3 10 10 10 16 0 5 -4 9 -10 9 -5 0
-10 -7 -10 -16z"/>
<path d="M7011 5114 c0 -11 3 -14 6 -6 3 7 2 16 -1 19 -3 4 -6 -2 -5 -13z"/>
<path d="M4558 5089 c-19 -10 -25 -39 -9 -39 5 0 16 -6 23 -12 26 -25 74 -46
121 -52 26 -4 47 -11 47 -17 0 -5 14 -9 30 -9 20 0 30 5 30 15 0 20 -83 103
-116 115 -33 13 -104 12 -126 -1z"/>
<path d="M5134 5061 c-41 -10 -100 -47 -108 -67 -5 -12 -1 -14 17 -8 31 10 41
9 86 -6 34 -11 45 -10 80 4 23 9 55 16 71 16 35 0 39 18 11 44 -22 20 -110 29
-157 17z"/>
<path d="M4425 4960 c-3 -5 -2 -10 3 -10 4 0 24 -13 42 -30 18 -16 40 -30 47
-30 8 0 11 -5 7 -12 -5 -8 0 -9 14 -6 12 4 22 2 22 -3 0 -5 -8 -9 -17 -9 -15
0 -15 -2 -4 -9 17 -11 7 -41 -13 -41 -20 0 -31 -45 -18 -73 10 -20 11 -20 11
11 1 19 6 32 14 32 7 0 18 8 25 18 10 13 23 17 48 14 29 -4 34 -1 34 16 0 12
-5 24 -10 27 -6 4 -10 12 -9 18 4 33 -2 47 -22 47 -11 0 -46 8 -77 17 -32 9
-63 16 -71 14 -7 -1 -10 2 -6 8 3 6 2 11 -4 11 -5 0 -13 -4 -16 -10z"/>
<path d="M2930 4910 c6 -11 15 -20 20 -20 17 0 11 15 -11 28 -19 12 -19 11 -9
-8z"/>
<path d="M4648 4883 c7 -3 16 -2 19 1 4 3 -2 6 -13 5 -11 0 -14 -3 -6 -6z"/>
<path d="M2950 4876 c0 -9 30 -14 35 -6 4 6 -3 10 -14 10 -12 0 -21 -2 -21 -4z"/>
<path d="M6716 4872 c-3 -5 -7 -30 -10 -58 l-5 -49 19 50 c11 28 20 53 20 58
0 10 -18 9 -24 -1z"/>
<path d="M2990 4841 c0 -5 7 -11 14 -14 10 -4 13 -1 9 9 -6 15 -23 19 -23 5z"/>
<path d="M4576 4735 c-3 -9 0 -15 9 -15 9 0 12 6 9 15 -4 8 -7 15 -9 15 -2 0
-5 -7 -9 -15z"/>
<path d="M4412 4728 c3 -7 15 -14 29 -15 14 -1 17 0 7 3 -10 3 -18 10 -18 15
0 5 -5 9 -11 9 -6 0 -9 -6 -7 -12z"/>
<path d="M4530 4689 c0 -5 5 -7 10 -4 6 3 10 8 10 11 0 2 -4 4 -10 4 -5 0 -10
-5 -10 -11z"/>
<path d="M4500 4502 c0 -7 -4 -11 -9 -7 -5 3 -12 1 -16 -5 -3 -6 -18 -10 -33
-9 -33 2 -150 -28 -177 -45 -27 -17 -113 -38 -154 -37 -63 2 -69 -57 -11 -117
23 -23 47 -42 55 -42 9 0 15 -10 15 -26 0 -19 7 -28 30 -35 17 -6 30 -15 30
-20 0 -5 7 -9 16 -9 9 0 55 -20 103 -44 47 -25 115 -58 151 -74 65 -29 165
-47 195 -36 14 6 13 9 -5 26 -12 11 -19 23 -15 26 3 4 10 0 15 -8 7 -10 10
-11 10 -2 0 20 17 14 23 -9 3 -12 12 -19 19 -17 17 6 17 44 1 40 -7 -1 -13 7
-13 18 0 23 -10 26 -28 8 -14 -14 -14 -10 -12 52 2 47 17 72 47 76 91 15 104
14 128 -11 l25 -24 19 25 c22 28 31 30 31 9 0 -20 30 -19 58 1 13 9 32 14 43
11 10 -3 19 -1 19 4 0 5 11 4 26 -1 16 -7 23 -7 19 0 -4 6 10 10 34 10 21 0
46 3 55 6 11 4 16 0 16 -11 0 -17 1 -17 19 -1 19 17 20 17 33 -3 7 -12 18 -21
24 -21 7 0 14 -7 17 -14 4 -10 1 -13 -9 -9 -9 3 -14 -2 -14 -17 0 -15 -4 -20
-15 -16 -16 6 -65 -34 -65 -53 0 -20 -30 -12 -39 12 -9 22 -9 22 -20 -5 -6
-16 -13 -28 -16 -28 -4 0 -3 4 0 10 4 6 -10 9 -35 8 -22 -1 -36 -5 -29 -9 23
-14 0 -28 -32 -19 -16 5 -37 6 -45 3 -8 -3 -20 -1 -27 4 -8 6 -21 5 -37 -3
-14 -8 -21 -14 -16 -14 5 0 4 -6 -2 -13 -20 -24 25 -56 47 -34 9 9 15 8 22 -5
6 -10 19 -18 30 -18 11 0 17 5 14 10 -3 6 -1 10 5 10 7 0 9 8 5 21 -7 20 -4
21 22 16 18 -3 35 -1 43 6 9 9 11 8 8 -8 -3 -16 -10 -19 -33 -17 -23 3 -27 1
-18 -9 7 -7 33 -10 72 -7 34 2 61 1 61 -3 0 -11 86 9 134 31 31 13 44 25 40
34 -4 10 3 16 18 18 13 2 27 13 33 26 5 12 13 22 17 22 15 0 8 -18 -19 -44
-39 -39 -20 -43 21 -4 20 19 61 42 93 53 32 10 68 25 80 33 15 9 35 12 63 7
38 -6 40 -6 40 19 0 37 -31 60 -111 81 -40 10 -92 29 -115 41 -33 18 -62 24
-119 25 -41 1 -80 -3 -88 -9 -7 -6 -40 -11 -72 -10 -33 0 -64 -1 -70 -2 -24
-6 -45 1 -45 14 0 23 -22 31 -32 12 -5 -9 -14 -13 -20 -10 -6 4 -14 0 -19 -7
-5 -9 -9 -10 -9 -2 0 6 -9 9 -20 6 -11 -3 -20 -1 -20 4 0 5 -6 18 -14 28 -12
16 -16 17 -30 6 -21 -18 -20 -48 2 -54 16 -4 16 -5 -1 -6 -10 0 -15 -5 -12
-11 4 -6 -5 -10 -21 -10 -21 0 -25 4 -21 20 3 12 -4 29 -19 45 -13 14 -24 32
-24 39 0 7 -19 21 -42 31 -24 10 -47 21 -52 23 -5 3 -6 -1 -2 -7 4 -6 0 -14
-10 -18 -10 -4 -19 -2 -22 5 -2 7 -12 12 -21 12 -21 0 -64 43 -54 54 4 4 0 4
-9 1 -9 -4 -25 -2 -36 4 -15 8 -23 7 -32 -4 -11 -13 -14 -13 -26 2 -9 12 -13
14 -14 5z m159 -324 c0 -7 -4 -21 -8 -31 -6 -17 -8 -17 -20 -3 -7 9 -11 23 -7
31 7 18 36 20 35 3z m351 -158 c0 -5 -8 -10 -17 -10 -15 0 -16 2 -3 10 19 12
20 12 20 0z m-370 -10 c0 -5 -2 -10 -4 -10 -3 0 -8 5 -11 10 -3 6 -1 10 4 10
6 0 11 -4 11 -10z"/>
<path d="M4970 4391 c0 -10 7 -24 15 -31 10 -9 15 -9 15 -1 0 6 7 11 15 11 8
0 15 5 15 12 0 6 -3 9 -6 5 -4 -3 -13 0 -21 8 -20 20 -33 19 -33 -4z"/>
<path d="M5055 4400 c4 -6 11 -8 16 -5 14 9 11 15 -7 15 -8 0 -12 -5 -9 -10z"/>
<path d="M5233 4373 c-23 -9 -14 -32 10 -29 30 3 49 15 42 27 -7 10 -32 11
-52 2z"/>
<path d="M3420 4226 c0 -24 17 -28 23 -6 3 13 0 20 -9 20 -8 0 -14 -6 -14 -14z"/>
<path d="M5015 4090 c-3 -5 -1 -10 4 -10 6 0 11 5 11 10 0 6 -2 10 -4 10 -3 0
-8 -4 -11 -10z"/>
<path d="M4755 4080 c3 -5 8 -10 11 -10 2 0 4 5 4 10 0 6 -5 10 -11 10 -5 0
-7 -4 -4 -10z"/>
<path d="M4776 4065 c-5 -14 20 -29 35 -19 15 9 10 21 -10 27 -11 3 -22 -1
-25 -8z"/>
<path d="M6491 4064 c0 -11 3 -14 6 -6 3 7 2 16 -1 19 -3 4 -6 -2 -5 -13z"/>
<path d="M4850 4040 c0 -19 5 -30 14 -30 10 0 14 10 14 30 -1 18 -6 30 -15 30
-8 0 -13 -12 -13 -30z"/>
<path d="M6425 3949 c-4 -11 -4 -23 -1 -26 3 -4 6 1 6 10 0 10 5 17 10 17 6 0
10 5 10 10 0 18 -19 10 -25 -11z"/>
<path d="M6400 3904 c0 -8 5 -12 10 -9 6 4 8 11 5 16 -9 14 -15 11 -15 -7z"/>
<path d="M6367 3883 c-4 -3 -7 -14 -7 -24 0 -10 -11 -26 -24 -35 -14 -8 -23
-21 -21 -27 3 -7 -16 -27 -40 -46 -25 -19 -45 -42 -45 -52 0 -11 -6 -19 -13
-19 -15 0 -47 -35 -47 -51 0 -18 24 -4 37 21 10 20 11 21 16 4 4 -16 5 -16 6
3 1 13 10 24 22 28 14 5 19 13 16 26 -4 15 0 19 18 19 16 0 26 9 35 30 7 17
16 30 20 30 9 0 44 89 38 96 -3 2 -8 1 -11 -3z"/>
<path d="M3820 3799 c0 -5 5 -7 10 -4 6 3 10 8 10 11 0 2 -4 4 -10 4 -5 0 -10
-5 -10 -11z"/>
<path d="M3816 3727 c3 -10 9 -15 12 -12 3 3 0 11 -7 18 -10 9 -11 8 -5 -6z"/>
<path d="M6250 3665 c0 -8 2 -15 4 -15 2 0 6 7 10 15 3 8 1 15 -4 15 -6 0 -10
-7 -10 -15z"/>
<path d="M4328 3635 c-4 -20 -3 -23 8 -14 16 13 19 39 5 39 -5 0 -11 -11 -13
-25z"/>
<path d="M6266 3638 c-9 -37 -7 -43 9 -22 16 21 19 44 6 44 -5 0 -11 -10 -15
-22z"/>
<path d="M4150 3544 c0 -8 5 -12 10 -9 6 4 8 11 5 16 -9 14 -15 11 -15 -7z"/>
<path d="M4320 3530 c0 -5 9 -14 21 -20 19 -11 20 -10 9 9 -11 22 -30 29 -30
11z"/>
<path d="M5780 3380 c0 -5 7 -10 15 -10 8 0 15 5 15 10 0 6 -7 10 -15 10 -8 0
-15 -4 -15 -10z"/>
<path d="M4828 3366 c-22 -16 -22 -22 -2 -30 21 -8 45 11 37 30 -6 17 -13 17
-35 0z"/>
</g>
</svg>
