<svg width="32" height="32" viewBox="0 0 32 32" fill="none" xmlns="http://www.w3.org/2000/svg">
<g clip-path="url(#clip0_106_75)">
<path d="M24.5 0H7.5C3.35786 0 0 3.35786 0 7.5V24.5C0 28.6421 3.35786 32 7.5 32H24.5C28.6421 32 32 28.6421 32 24.5V7.5C32 3.35786 28.6421 0 24.5 0Z" fill="#0277BD"/>
<path d="M6.71912 12.8314L7.07688 16.8241H16.012V12.8314H6.71912ZM16.0119 4.75H6L6.363 8.74275H16.0119V4.75ZM16.0119 27.3551V23.201L15.9944 23.2056L11.5476 22.005L11.2634 18.8205H7.25525L7.81462 25.0898L15.9935 27.3603L16.0119 27.3551Z" fill="#EBEBEB"/>
<path d="M20.9148 16.8241L20.4513 22.0024L15.9981 23.2044V27.3582L24.1835 25.0898L24.2435 24.4151L25.1818 13.9036L25.2791 12.8314L26 4.75H15.9981V8.74275H21.6243L21.261 12.8314H15.9981V16.8241H20.9148Z" fill="white"/>
</g>
<defs>
<clipPath id="clip0_106_75">
<rect width="32" height="32" fill="white"/>
</clipPath>
</defs>
</svg>
