<svg width="40" height="39" viewBox="0 0 40 39" fill="none" xmlns="http://www.w3.org/2000/svg">
<path d="M20.675 15.433H24.25V18.9967H26.0575C26.9029 18.9929 27.742 18.8558 28.5425 18.5908C28.9629 18.4551 29.3676 18.277 29.75 18.0594C29.2608 17.3991 28.9707 16.6186 28.9125 15.806C28.7621 14.6201 29.0744 13.4225 29.7875 12.4507L30.1625 12.0266L30.61 12.3776C31.7967 13.2259 32.6007 14.489 32.8538 15.9022C34.2335 15.4891 35.7247 15.6244 37.0025 16.2788L37.4938 16.5543L37.235 17.0418C36.7116 17.9009 35.9383 18.5893 35.0133 19.0195C34.0882 19.4498 33.053 19.6026 32.0388 19.4586C28.9388 26.9758 22.2 30.5346 14.0275 30.5346C9.80501 30.5346 5.9325 28.9953 3.72625 25.3439L3.69 25.2842L3.375 24.6516C2.64845 23.0409 2.36456 21.2734 2.55125 19.5231L2.60125 18.9954H5.6575V15.433H9.23375V11.9437H16.385V8.46056H20.675V15.433Z" fill="#0096E6"/>
<path d="M15.0075 29.941C13.2585 29.2144 11.8563 27.8694 11.0825 26.1763C10.158 26.4175 9.20881 26.5577 8.2525 26.5943C7.83583 26.6171 7.40042 26.6285 6.94625 26.6285C6.41958 26.6285 5.865 26.6134 5.2825 26.5834C6.40721 27.7251 7.77078 28.6174 9.28059 29.1997C10.7904 29.782 12.4111 30.0407 14.0325 29.9581C14.3592 29.9581 14.6842 29.9524 15.0075 29.941ZM8.85 16.2654H9.1V18.7846H8.85V16.2654ZM8.38 16.2654H8.63V18.7846H8.375V16.2654H8.38ZM7.91 16.2654H8.16V18.7846H7.91V16.2654ZM7.44 16.2654H7.69V18.7846H7.44V16.2654ZM6.97 16.2654H7.22V18.7846H6.97V16.2654ZM6.51 16.2654H6.76V18.7846H6.51V16.2654ZM6.25 16.0144H9.3525V19.0357H6.25V16.0144ZM9.82375 12.5275H12.9238V15.5488H9.82875L9.82375 12.5275ZM12.42 12.7798H12.67V15.2977H12.42V12.7798ZM11.95 12.7798H12.2V15.2977H11.95V12.7798ZM11.48 12.7798H11.73V15.2977H11.48V12.7798ZM11.01 12.7798H11.26V15.2977H11.01V12.7798ZM10.54 12.7798H10.79V15.2977H10.54V12.7798ZM10.08 12.7798H10.33V15.2977H10.08V12.7798ZM9.82125 16.0132H12.9213V19.0357H9.82875V16.0144L9.82125 16.0132ZM12.4175 16.2654H12.6675V18.7846H12.4175V16.2654ZM11.9475 16.2654H12.1975V18.7846H11.9475V16.2654ZM11.4775 16.2654H11.7275V18.7846H11.4775V16.2654ZM11.0075 16.2654H11.2575V18.7846H11.0075V16.2654ZM10.5375 16.2654H10.7875V18.7846H10.5375V16.2654ZM10.0775 16.2654H10.3275V18.7846H10.0775V16.2654ZM13.395 16.0132H16.5V19.0357H13.4V16.0144L13.395 16.0132ZM15.99 16.2654H16.25V18.7846H16L15.99 16.2654ZM15.52 16.2654H15.77V18.7846H15.52V16.2654ZM15.05 16.2654H15.3V18.7846H15.05V16.2654ZM14.58 16.2654H14.83V18.7846H14.58V16.2654ZM14.11 16.2654H14.36V18.7846H14.11V16.2654ZM13.65 16.2654H13.9V18.7846H13.65V16.2654ZM13.3925 12.5275H16.5V15.5488H13.4V12.5275H13.3925ZM15.9875 12.7798H16.25V15.2977H16L15.9875 12.7798ZM15.5175 12.7798H15.7675V15.2977H15.5175V12.7798ZM15.0475 12.7798H15.2975V15.2977H15.0475V12.7798ZM14.5775 12.7798H14.8275V15.2977H14.5775V12.7798ZM14.1075 12.7798H14.3575V15.2977H14.1075V12.7798ZM13.6475 12.7798H13.8975V15.2977H13.6475V12.7798ZM16.965 16.0132H20.0638V19.0357H16.9638V16.0144L16.965 16.0132ZM19.56 16.2654H19.81V18.7846H19.56V16.2654ZM19.09 16.2654H19.34V18.7846H19.09V16.2654ZM18.62 16.2654H18.87V18.7846H18.62V16.2654ZM18.15 16.2654H18.4V18.7846H18.15V16.2654ZM17.68 16.2654H17.93V18.7846H17.68V16.2654ZM17.22 16.2654H17.46V18.7846H17.21V16.2654H17.22ZM16.9625 12.5275H20.0613V15.5488H16.9613L16.9625 12.5275ZM19.5575 12.7798H19.8075V15.2977H19.5575V12.7798ZM19.0875 12.7798H19.3375V15.2977H19.0875V12.7798ZM18.6175 12.7798H18.8675V15.2977H18.6175V12.7798ZM18.1475 12.7798H18.3975V15.2977H18.1475V12.7798ZM17.6775 12.7798H17.9275V15.2977H17.6775V12.7798ZM17.2175 12.7798H17.4575V15.2977H17.2075V12.7798H17.2175ZM16.96 9.0419H20.0588V12.0656H16.9588L16.96 9.0419ZM19.555 9.29296H19.805V11.8109H19.555V9.29296ZM19.085 9.29296H19.335V11.8109H19.085V9.29296ZM18.615 9.29296H18.865V11.8109H18.615V9.29296ZM18.145 9.29296H18.395V11.8109H18.145V9.29296ZM17.675 9.29296H17.925V11.8109H17.675V9.29296ZM17.215 9.29296H17.455V11.8109H17.205V9.29296H17.215ZM20.5325 16.0132H23.6313V19.0357H20.5312V16.0144L20.5325 16.0132ZM23.1275 16.2654H23.3713V18.7846H23.1213V16.2654H23.1275ZM22.6575 16.2654H22.915V18.7846H22.6575V16.2654ZM22.1875 16.2654H22.4375V18.7846H22.1875V16.2654ZM21.7175 16.2654H21.9675V18.7846H21.7175V16.2654ZM21.2475 16.2654H21.4975V18.7846H21.2413V16.2654H21.2475ZM20.7875 16.2654H21.0375V18.7846H20.795V16.2654H20.7875ZM12.735 23.9338C12.9041 23.9338 13.0694 23.9827 13.21 24.0743C13.3506 24.1659 13.4602 24.2961 13.5249 24.4484C13.5896 24.6007 13.6066 24.7684 13.5736 24.9301C13.5406 25.0918 13.4592 25.2403 13.3396 25.3569C13.22 25.4735 13.0677 25.5529 12.9018 25.585C12.7359 25.6172 12.564 25.6007 12.4078 25.5376C12.2516 25.4745 12.118 25.3677 12.0241 25.2306C11.9301 25.0935 11.88 24.9323 11.88 24.7674C11.88 24.5463 11.9701 24.3343 12.1304 24.178C12.2908 24.0216 12.5082 23.9338 12.735 23.9338ZM12.735 24.1702C12.8107 24.1702 12.8857 24.1838 12.9563 24.2105C12.9227 24.2292 12.894 24.2552 12.8725 24.2866C12.851 24.3179 12.8372 24.3537 12.8323 24.3911C12.8273 24.4285 12.8314 24.4665 12.8441 24.5021C12.8568 24.5377 12.8778 24.57 12.9054 24.5964C12.9331 24.6228 12.9666 24.6425 13.0034 24.6541C13.0402 24.6657 13.0793 24.6688 13.1175 24.6632C13.1558 24.6575 13.1922 24.6433 13.2238 24.6217C13.2555 24.6 13.2816 24.5715 13.3 24.5383C13.351 24.6565 13.3616 24.7875 13.3303 24.912C13.299 25.0365 13.2275 25.1479 13.1263 25.2297C13.025 25.3115 12.8995 25.3593 12.7682 25.3662C12.6369 25.3731 12.5068 25.3385 12.3972 25.2678C12.2876 25.197 12.2043 25.0937 12.1595 24.9732C12.1147 24.8526 12.111 24.7213 12.1487 24.5985C12.1864 24.4757 12.2637 24.368 12.369 24.2913C12.4744 24.2146 12.6023 24.173 12.7338 24.1727L12.735 24.1702Z" fill="white"/>
</svg>
