<svg width="32" height="32" viewBox="0 0 32 32" fill="none" xmlns="http://www.w3.org/2000/svg">
<path d="M3.46667 14.12L11.1733 6.4L13.4267 8.66667C13.1067 9.8 13.6267 11.04 14.6667 11.64V19.0267C13.8667 19.48 13.3333 20.3467 13.3333 21.3333C13.3333 22.0406 13.6143 22.7189 14.1144 23.219C14.6145 23.719 15.2928 24 16 24C16.7072 24 17.3855 23.719 17.8856 23.219C18.3857 22.7189 18.6667 22.0406 18.6667 21.3333C18.6667 20.3467 18.1333 19.48 17.3333 19.0267V12.5467L20.0933 15.3333C20 15.5333 20 15.76 20 16C20 16.7072 20.281 17.3855 20.781 17.8856C21.2811 18.3857 21.9594 18.6667 22.6667 18.6667C23.3739 18.6667 24.0522 18.3857 24.5523 17.8856C25.0524 17.3855 25.3333 16.7072 25.3333 16C25.3333 15.2928 25.0524 14.6145 24.5523 14.1144C24.0522 13.6143 23.3739 13.3333 22.6667 13.3333C22.4267 13.3333 22.2 13.3333 22 13.4267L18.5733 10C18.7389 9.38245 18.6747 8.7258 18.3927 8.15199C18.1107 7.57818 17.6301 7.12621 17.04 6.88C16.4667 6.66667 15.8667 6.61333 15.3333 6.76L13.0667 4.50667L14.12 3.46667C15.16 2.41333 16.84 2.41333 17.88 3.46667L28.5333 14.12C29.5867 15.16 29.5867 16.84 28.5333 17.88L17.88 28.5333C16.84 29.5867 15.16 29.5867 14.12 28.5333L3.46667 17.88C2.41333 16.84 2.41333 15.16 3.46667 14.12Z" fill="#FDFDFD"/>
</svg>
