<svg width="30" height="25" viewBox="0 0 30 25" fill="none" xmlns="http://www.w3.org/2000/svg">
<g clip-path="url(#clip0_173_702)">
<path d="M6.8182 24.8769V12.0648L3.22348 8.42966L0 6.41243V22.6159C0 23.867 0.916992 24.8769 2.04551 24.8769H6.8182Z" fill="#4285F4"/>
<path d="M23.1819 24.8769H27.9546C29.0865 24.8769 30.0001 23.8632 30.0001 22.6159V6.41257L26.349 8.72306L23.1819 12.0648V24.8769Z" fill="#34A853"/>
<path d="M6.81824 12.0648L6.3291 7.05869L6.81824 2.26736L15 9.05027L23.1818 2.26736L23.729 6.80001L23.1818 12.0648L15 18.8477L6.81824 12.0648Z" fill="#EA4335"/>
<path d="M23.1819 2.26736V12.0648L30.0001 6.41244V3.3978C30.0001 0.601819 27.1126 -0.992093 25.0911 0.684721L23.1819 2.26736Z" fill="#FBBC04"/>
<path d="M0 6.41245L3.13582 9.0122L6.8182 12.0648V2.26738L4.90898 0.684734C2.88398 -0.992209 0 0.601833 0 3.39769V6.41232V6.41245Z" fill="#C5221F"/>
</g>
<defs>
<clipPath id="clip0_173_702">
<rect width="30" height="25" fill="white"/>
</clipPath>
</defs>
</svg>
