<svg width="23" height="23" viewBox="0 0 23 23" fill="none" xmlns="http://www.w3.org/2000/svg">
<g clip-path="url(#clip0_112_303)">
<path d="M21.7142 12.9195C22.3931 12.9195 22.992 12.2906 22.992 11.4775C23.0319 11.0732 22.8722 10.7139 22.5528 10.3994L20.4444 8.31055V2.875C20.4444 2.07988 19.8734 1.4375 19.1667 1.4375H17.8889C17.1821 1.4375 16.6111 2.07988 16.6111 2.875V4.52363L12.3585 0.314453C12.1189 0.0898438 11.7995 0 11.52 0C11.2405 0 10.921 0.0449219 10.6415 0.359375L0.399306 10.3994C0.119792 10.7139 0 11.0732 0 11.4775C0 12.2861 0.559028 12.9195 1.27778 12.9195H2.55556V16.0506C2.55156 16.091 2.55156 16.1314 2.55156 16.1764V21.2031C2.55156 22.1959 3.26632 23 4.14878 23H4.78767C4.83559 23 4.88351 22.9955 4.93142 22.991C4.99132 22.9955 5.05122 23 5.11111 23H7.34722C8.22969 23 8.94444 22.1959 8.94444 21.2031V17.25C8.94444 16.4549 9.51545 15.8125 10.2222 15.8125H12.7778C13.4845 15.8125 14.0556 16.4549 14.0556 17.25V21.2031C14.0556 22.1959 14.7703 23 15.6528 23H17.9089C17.9648 23 18.0207 23 18.0766 22.9955C18.1205 23 18.1644 23 18.2083 23H18.8472C19.7297 23 20.4444 22.1959 20.4444 21.2031V20.4754C20.4564 20.3586 20.4644 20.2373 20.4644 20.1115L20.4365 12.915H21.7142V12.9195Z" fill="#8257E5"/>
</g>
<defs>
<clipPath id="clip0_112_303">
<rect width="23" height="23" fill="white"/>
</clipPath>
</defs>
</svg>
