<svg width="32" height="32" viewBox="0 0 32 32" fill="none" xmlns="http://www.w3.org/2000/svg">
<g clip-path="url(#clip0_106_66)">
<path d="M24.5 0H7.5C3.35786 0 0 3.35786 0 7.5V24.5C0 28.6421 3.35786 32 7.5 32H24.5C28.6421 32 32 28.6421 32 24.5V7.5C32 3.35786 28.6421 0 24.5 0Z" fill="#F0DB4F"/>
<path d="M8.414 26.7415L10.8628 25.2595C11.3353 26.0971 11.765 26.8059 12.7959 26.8059C13.784 26.8059 14.407 26.4194 14.407 24.9159V14.6911H17.4143V24.9584C17.4143 28.073 15.5885 29.4907 12.9248 29.4907C10.5191 29.4907 9.12275 28.2449 8.41388 26.7412M19.0476 26.4192L21.4961 25.0016C22.1408 26.0542 22.9785 26.8275 24.4605 26.8275C25.7066 26.8275 26.5011 26.2045 26.5011 25.3452C26.5011 24.3142 25.6849 23.949 24.3101 23.3477L23.5585 23.0254C21.3889 22.1019 19.9496 20.9419 19.9496 18.4931C19.9496 16.2376 21.6681 14.5191 24.3533 14.5191C26.265 14.5191 27.6398 15.1851 28.6278 16.925L26.2864 18.4286C25.7708 17.505 25.2125 17.1399 24.3533 17.1399C23.4725 17.1399 22.914 17.6984 22.914 18.4286C22.914 19.3307 23.4725 19.696 24.7613 20.2546L25.513 20.5767C28.0691 21.6724 29.5084 22.7891 29.5084 25.3022C29.5084 28.009 27.3819 29.491 24.525 29.491C21.7326 29.491 19.9283 28.1592 19.0476 26.4192Z" fill="#323330"/>
</g>
<defs>
<clipPath id="clip0_106_66">
<rect width="32" height="32" fill="white"/>
</clipPath>
</defs>
</svg>
