<svg width="24" height="24" viewBox="0 0 24 24" fill="none" xmlns="http://www.w3.org/2000/svg">
<path d="M20.3168 11.8395C20.3168 11.3211 20.1109 10.824 19.7444 10.4575C19.3778 10.0909 18.8807 9.88501 18.3623 9.88501C18.2937 9.88493 18.2251 9.88844 18.1568 9.89551L20.8418 1.97701H9.43206L12.1133 9.88876C12.0743 9.88876 12.0346 9.88501 11.9948 9.88501C11.5281 9.88447 11.0766 10.051 10.7219 10.3544C10.3673 10.6578 10.1329 11.0782 10.0613 11.5394C9.98959 12.0006 10.0853 12.4722 10.3312 12.8689C10.577 13.2657 10.9567 13.5614 11.4016 13.7025C10.9858 14.4184 10.4681 15.0699 9.86481 15.6368C9.07947 16.3875 8.14642 16.9665 7.12506 17.337C6.55282 17.0658 6.10527 16.5869 5.87333 15.9977C5.64139 15.4084 5.64246 14.753 5.87631 14.1645C5.93406 14.0295 5.99256 13.893 6.04806 13.7565C6.48385 13.6539 6.87122 13.4048 7.14544 13.0509C7.41965 12.697 7.56411 12.2597 7.55467 11.8121C7.54522 11.3645 7.38245 10.9337 7.09355 10.5916C6.80465 10.2496 6.40712 10.0171 5.96739 9.93293C5.52766 9.84877 5.07237 9.91807 4.67759 10.1292C4.28281 10.3404 3.97247 10.6807 3.79841 11.0932C3.62435 11.5057 3.59713 11.9654 3.72129 12.3955C3.84545 12.8257 4.11347 13.2002 4.48056 13.4565C3.85668 14.5877 3.38055 15.7943 3.06381 17.0468C2.79831 18.648 3.06381 20.3468 4.44756 21.3075C7.67256 23.5433 11.1743 19.9215 14.8658 19.0118C16.2038 18.6818 17.6723 18.735 18.8506 18.0525C19.2762 17.8101 19.6433 17.4769 19.9258 17.0766C20.2082 16.6764 20.3991 16.2188 20.4848 15.7365C20.5632 15.2769 20.5484 14.8063 20.4414 14.3525C20.3343 13.8987 20.1371 13.4711 19.8616 13.095C20.1556 12.7436 20.3165 12.2999 20.3161 11.8418L20.3168 11.8395ZM13.9501 11.85V11.8433C13.9506 11.5069 13.8642 11.1761 13.6991 10.8831C13.534 10.59 13.296 10.3446 13.0081 10.1708L15.1411 5.85001L17.2786 10.2105C17.0104 10.3887 16.7905 10.6305 16.6386 10.9144C16.4867 11.1982 16.4074 11.5153 16.4078 11.8373V11.88L13.9501 11.85Z" fill="#C63D14"/>
<path d="M20.7945 11.8395C20.7937 11.2728 20.5953 10.7241 20.2335 10.2879C19.8717 9.85174 19.369 9.55542 18.8122 9.45L21.5077 1.5H8.7667L11.4667 9.46575C10.9953 9.57111 10.5661 9.8145 10.2336 10.1649C9.90117 10.5153 9.68064 10.9567 9.60016 11.433C9.51969 11.9092 9.58292 12.3986 9.78178 12.8388C9.98065 13.2789 10.3061 13.6499 10.7167 13.9042C10.3775 14.4081 9.98308 14.8725 9.5407 15.2887C8.85593 15.9439 8.05124 16.4608 7.1707 16.8113C6.75747 16.5714 6.44423 16.191 6.2881 15.7394C6.13198 15.2878 6.14337 14.7951 6.3202 14.3512L6.3502 14.2815L6.4057 14.1503C6.90557 13.9769 7.33534 13.6455 7.62996 13.206C7.92457 12.7666 8.06796 12.2431 8.03843 11.7149C8.0089 11.1867 7.80804 10.6825 7.46628 10.2786C7.12452 9.87476 6.66047 9.59327 6.1444 9.47677C5.62834 9.36027 5.08836 9.4151 4.60625 9.63297C4.12414 9.85083 3.72615 10.2199 3.47255 10.6842C3.21895 11.1485 3.12356 11.6828 3.20081 12.2062C3.27807 12.7296 3.52377 13.2135 3.9007 13.5848C3.8197 13.758 3.7342 13.9335 3.64645 14.1143C3.16018 15.0083 2.80648 15.9684 2.59645 16.9642C2.2477 19.0642 2.8102 20.7465 4.1797 21.6952C4.91488 22.221 5.79664 22.5025 6.70045 22.5C8.29945 22.5 9.9172 21.6968 11.5005 20.9108C12.6067 20.3091 13.7737 19.8269 14.982 19.4722C15.4147 19.3657 15.8602 19.3012 16.332 19.233C17.293 19.1562 18.2302 18.8944 19.092 18.462C19.5779 18.1844 19.9969 17.8034 20.3192 17.3458C20.6416 16.8883 20.8594 16.3655 20.9572 15.8145C21.1166 14.8783 20.9325 13.9161 20.439 13.1047C20.6724 12.7238 20.7957 12.2856 20.7952 11.8387L20.7945 11.8395ZM19.8397 11.8395C19.8397 12.1317 19.753 12.4174 19.5907 12.6604C19.4283 12.9033 19.1976 13.0927 18.9276 13.2045C18.6576 13.3164 18.3606 13.3456 18.074 13.2886C17.7873 13.2316 17.5241 13.0909 17.3175 12.8843C17.1108 12.6776 16.9701 12.4144 16.9131 12.1277C16.8561 11.8411 16.8853 11.5441 16.9972 11.2741C17.109 11.0041 17.2984 10.7734 17.5413 10.611C17.7843 10.4487 18.07 10.362 18.3622 10.362C18.7539 10.3624 19.1295 10.5182 19.4065 10.7952C19.6835 11.0722 19.8393 11.4478 19.8397 11.8395ZM20.175 2.45475L17.7945 9.47475C17.6925 9.49941 17.5923 9.53073 17.4945 9.5685L15.1432 4.7685L12.7845 9.54C12.6818 9.50442 12.5768 9.47585 12.4702 9.4545L10.098 2.45475H20.175ZM11.9947 10.362C12.2869 10.362 12.5726 10.4487 12.8156 10.611C13.0585 10.7734 13.2479 11.0041 13.3597 11.2741C13.4716 11.5441 13.5008 11.8411 13.4438 12.1277C13.3868 12.4144 13.2461 12.6776 13.0395 12.8843C12.8328 13.0909 12.5696 13.2316 12.2829 13.2886C11.9963 13.3456 11.6993 13.3164 11.4293 13.2045C11.1593 13.0927 10.9286 12.9033 10.7662 12.6604C10.6039 12.4174 10.5172 12.1317 10.5172 11.8395C10.5176 11.4478 10.6734 11.0722 10.9504 10.7952C11.2274 10.5182 11.603 10.3624 11.9947 10.362ZM5.6032 10.3763C5.89555 10.3764 6.18129 10.4633 6.42424 10.6259C6.6672 10.7885 6.85645 11.0195 6.96805 11.2897C7.07966 11.5599 7.10859 11.8572 7.05119 12.1438C6.99379 12.4305 6.85264 12.6937 6.6456 12.9001C6.43857 13.1065 6.17495 13.2468 5.88812 13.3034C5.60128 13.3599 5.30413 13.3301 5.03426 13.2176C4.76439 13.1052 4.53394 12.9152 4.37208 12.6718C4.21021 12.4283 4.12421 12.1423 4.12495 11.85C4.12535 11.4583 4.28114 11.0827 4.55814 10.8057C4.83514 10.5287 5.21072 10.3729 5.60245 10.3725L5.6032 10.3763ZM20.016 15.6517C19.9418 16.0652 19.7777 16.4572 19.5352 16.8002C19.2927 17.1431 18.9778 17.4285 18.6127 17.6362C17.8553 18.004 17.0351 18.2252 16.1955 18.288C15.7215 18.3563 15.2317 18.4268 14.7525 18.5452C13.4767 18.9147 12.2445 19.4209 11.0775 20.055C8.70445 21.2332 6.65245 22.251 4.72345 20.9123C3.3082 19.9312 3.37345 18.1163 3.53845 17.1217C3.73263 16.2167 4.05647 15.3445 4.49995 14.532L4.70245 14.1127C4.90391 14.1933 5.11532 14.2463 5.33095 14.2703C5.14007 14.9445 5.1934 15.6645 5.48156 16.3032C5.76971 16.9419 6.27417 17.4584 6.90595 17.7615L7.0897 17.856L7.28395 17.787C8.36747 17.3959 9.35736 16.7828 10.1902 15.987C10.7403 15.4695 11.2236 14.8852 11.6287 14.2477C12.147 14.3266 12.677 14.2357 13.1395 13.9887C13.6019 13.7417 13.9721 13.3517 14.1948 12.8771C14.4175 12.4024 14.4808 11.8685 14.3751 11.3549C14.2695 10.8414 14.0007 10.3757 13.6087 10.0275L15.1372 6.93675L16.6815 10.0868C16.2421 10.5102 15.9781 11.0834 15.942 11.6926C15.9058 12.3017 16.1002 12.9022 16.4865 13.3746C16.8727 13.847 17.4225 14.1568 18.0267 14.2424C18.6309 14.328 19.2451 14.1832 19.7475 13.8368C20.026 14.3989 20.1192 15.0348 20.0137 15.6532L20.016 15.6517Z" fill="white"/>
</svg>
