<svg width="60" height="17" viewBox="0 0 60 17" fill="none" xmlns="http://www.w3.org/2000/svg">
<g clip-path="url(#clip0_106_53)">
<path d="M23.6786 9.95709L26.9893 14.5714H24.375L21.4286 10.3336V14.5714H19.2857V2.42861H21.4286V9.56861L24.15 6.07139H26.8821L23.6786 9.95709ZM15.1071 5.82861C14.6379 5.83657 14.1774 5.97329 13.7651 6.22705C13.3527 6.48081 13.0007 6.84406 12.7393 7.2857V6.07139H10.7143V14.5714H12.8571V10.6007C12.829 10.3125 12.8535 10.0208 12.9291 9.74379C13.0047 9.46678 13.1298 9.21037 13.2967 8.99054C13.4635 8.7707 13.6685 8.59213 13.8988 8.46595C14.1292 8.33976 14.38 8.26867 14.6357 8.25709C15.8786 8.25709 16.0714 9.64139 16.0714 10.6007V14.5714H18.2143V10.0664C18.2143 7.395 17.4321 5.82861 15.15 5.82861H15.1071ZM34.2857 10.5157C34.2939 10.6937 34.2939 10.872 34.2857 11.05H28.6607V11.135C28.752 11.6414 28.9995 12.0943 29.3589 12.4125C29.7182 12.7307 30.1658 12.8934 30.6214 12.8714C30.9829 12.8892 31.3438 12.8242 31.6825 12.6802C32.0213 12.5363 32.3309 12.3164 32.5929 12.0336L34.0179 13.2479C33.5662 13.7703 33.023 14.1795 32.4232 14.4493C31.8235 14.7191 31.1804 14.8434 30.5357 14.8143C30.0017 14.8525 29.4667 14.7605 28.9668 14.5443C28.4669 14.3281 28.0138 13.9929 27.638 13.5613C27.2622 13.1296 26.9726 12.6116 26.7886 12.0422C26.6046 11.4728 26.5305 10.8653 26.5714 10.2607C26.5605 9.66385 26.6581 9.07083 26.8582 8.51861C27.0583 7.96639 27.3567 7.46681 27.7346 7.05099C28.1126 6.63518 28.5621 6.31205 29.055 6.10174C29.548 5.89143 30.0739 5.79846 30.6 5.82861C32.6143 5.82861 34.2857 7.44361 34.2857 10.5157ZM32.2929 9.47139C32.285 9.23087 32.234 8.99469 32.143 8.77723C32.0519 8.55978 31.9228 8.3656 31.7634 8.20655C31.604 8.04749 31.4177 7.92688 31.2159 7.85207C31.014 7.77726 30.8008 7.7498 30.5893 7.77139C29.6471 7.65598 28.7939 8.40809 28.6607 9.47139H32.2929ZM2.14289 2.42861H0V14.5714H6.42855V12.143H2.14289V2.42861ZM40.7143 2.42861H42.8571V14.5714H40.8321V13.7214C40.575 14.0804 40.2473 14.3663 39.8752 14.5561C39.5031 14.7458 39.097 14.8343 38.6893 14.8143C38.1913 14.7998 37.7012 14.67 37.249 14.433C36.7969 14.1959 36.3923 13.8565 36.0601 13.4357C35.728 13.0149 35.4752 12.5216 35.3175 11.986C35.1598 11.4504 35.1003 10.8839 35.1429 10.3214C35.0923 9.75804 35.1457 9.18893 35.2998 8.65026C35.4539 8.11159 35.7052 7.61516 36.0377 7.19257C36.3703 6.76997 36.7768 6.43046 37.2315 6.19564C37.6861 5.96081 38.179 5.83582 38.6786 5.82861C39.0507 5.81013 39.4223 5.87577 39.7718 6.0217C40.1213 6.16763 40.4417 6.39094 40.7143 6.67861V2.42861ZM40.875 10.3214C40.9087 10.041 40.8889 9.75567 40.8171 9.48466C40.7452 9.21365 40.6229 8.96325 40.4584 8.75035C40.2939 8.53746 40.0911 8.36701 39.8635 8.25051C39.636 8.13401 39.389 8.07416 39.1393 8.075C38.1143 8.15934 37.3376 9.15835 37.3929 10.3214C37.3376 11.4844 38.1143 12.4836 39.1393 12.5679C39.389 12.5688 39.636 12.5089 39.8636 12.3924C40.0911 12.2759 40.294 12.1054 40.4585 11.8925C40.623 11.6796 40.7453 11.4292 40.8171 11.1582C40.889 10.8871 40.9087 10.6018 40.875 10.3214ZM8.57145 2.1857C8.22686 2.19123 7.89696 2.34474 7.64837 2.61524C7.39978 2.88574 7.25101 3.25306 7.23211 3.64305C7.23211 4.48123 7.83176 5.16083 8.57145 5.16083C9.31113 5.16083 9.91055 4.48109 9.91055 3.64305C9.89162 3.25311 9.74286 2.88584 9.49429 2.61537C9.24573 2.3449 8.91587 2.19139 8.57133 2.18583L8.57145 2.1857ZM7.5 14.5714H9.64289V6.07139H7.5V14.5714ZM60 1.2143V15.7857C60 16.1077 59.8871 16.4166 59.6862 16.6443C59.4852 16.8721 59.2127 17 58.9286 17H46.0714C45.7873 17 45.5148 16.8721 45.3138 16.6443C45.1129 16.4166 45 16.1077 45 15.7857V1.2143C45 0.892251 45.1129 0.583388 45.3138 0.355662C45.5148 0.127935 45.7873 0 46.0714 0L58.9286 0C59.2127 0 59.4852 0.127935 59.6862 0.355662C59.8871 0.583388 60 0.892251 60 1.2143ZM49.2857 6.07139H47.1429V14.5714H49.2857V6.07139ZM49.5536 3.64291C49.5536 2.8046 48.9539 2.125 48.2143 2.125C47.4746 2.125 46.875 2.8046 46.875 3.64291C46.875 4.48109 47.4746 5.1607 48.2143 5.1607C48.9539 5.1607 49.5536 4.48109 49.5536 3.64291ZM57.8571 10.0664C57.8571 7.395 57.075 5.82861 54.7929 5.82861C54.3164 5.82866 53.8473 5.9616 53.4268 6.21571C53.0064 6.46982 52.6476 6.83729 52.3821 7.2857V6.07139H50.3571V14.5714H52.5V10.6007C52.4719 10.3125 52.4964 10.0208 52.572 9.74379C52.6476 9.46678 52.7727 9.21037 52.9396 8.99054C53.1064 8.7707 53.3114 8.59213 53.5417 8.46595C53.7721 8.33976 54.0229 8.26867 54.2786 8.25709C55.5214 8.25709 55.7143 9.64139 55.7143 10.6007V14.5714H57.8571V10.0664Z" fill="#E1E1E6"/>
</g>
<defs>
<clipPath id="clip0_106_53">
<rect width="60" height="17" fill="white"/>
</clipPath>
</defs>
</svg>
