<svg width="25" height="32" viewBox="0 0 25 32" fill="none" xmlns="http://www.w3.org/2000/svg">
<g clip-path="url(#clip0_106_116)">
<path d="M6.25 32C9.7 32 12.5 29.6107 12.5 26.6667V21.3333H6.25C2.8 21.3333 0 23.7227 0 26.6667C0 29.6107 2.8 32 6.25 32Z" fill="#0ACF83"/>
<path d="M0 16C0 13.056 2.8 10.6667 6.25 10.6667H12.5V21.3333H6.25C2.8 21.3333 0 18.944 0 16Z" fill="#A259FF"/>
<path d="M0 5.33333C0 2.38933 2.8 0 6.25 0H12.5V10.6667H6.25C2.8 10.6667 0 8.27733 0 5.33333Z" fill="#F24E1E"/>
<path d="M12.5 0H18.75C22.2 0 25 2.38933 25 5.33333C25 8.27733 22.2 10.6667 18.75 10.6667H12.5V0Z" fill="#FF7262"/>
<path d="M25 16C25 18.944 22.2 21.3333 18.75 21.3333C15.3 21.3333 12.5 18.944 12.5 16C12.5 13.056 15.3 10.6667 18.75 10.6667C22.2 10.6667 25 13.056 25 16Z" fill="#1ABCFE"/>
</g>
<defs>
<clipPath id="clip0_106_116">
<rect width="25" height="32" fill="white"/>
</clipPath>
</defs>
</svg>
