<svg width="32" height="32" viewBox="0 0 32 32" fill="none" xmlns="http://www.w3.org/2000/svg">
<g clip-path="url(#clip0_106_132)">
<path d="M24.5 0H7.5C3.35786 0 0 3.35786 0 7.5V24.5C0 28.6421 3.35786 32 7.5 32H24.5C28.6421 32 32 28.6421 32 24.5V7.5C32 3.35786 28.6421 0 24.5 0Z" fill="#F4F2ED"/>
<mask id="mask0_106_132" style="mask-type:luminance" maskUnits="userSpaceOnUse" x="4" y="4" width="24" height="24">
<path d="M4.75 4.75H27.25V27.25H4.75V4.75Z" fill="white"/>
</mask>
<g mask="url(#mask0_106_132)">
<path fill-rule="evenodd" clip-rule="evenodd" d="M25.4751 22.2763C24.2514 22.2423 23.302 22.3676 22.5064 22.7024C22.2773 22.7944 21.9096 22.7944 21.8794 23.0828C22.0019 23.2038 22.0166 23.4018 22.124 23.5695C22.3074 23.8739 22.6291 24.2839 22.9196 24.4966L23.8989 25.1964C24.4956 25.561 25.1689 25.7741 25.7503 26.1391C26.087 26.3521 26.4235 26.6259 26.7603 26.8543C26.9318 26.9759 27.0356 27.174 27.25 27.2496V27.2036C27.143 27.0673 27.1121 26.8696 27.0055 26.7169L26.5459 26.2761C26.1025 25.6831 25.5513 25.1656 24.9545 24.7403C24.4648 24.4056 23.394 23.9495 23.195 23.3871L23.1649 23.353C23.501 23.319 23.8989 23.2006 24.2205 23.1094C24.7411 22.973 25.2151 23.003 25.7503 22.8663L26.4853 22.6533V22.5169C26.2098 22.2433 26.0109 21.8781 25.7204 21.6199C24.9401 20.9508 24.0826 20.2966 23.195 19.7493C22.7208 19.4453 22.1085 19.2471 21.6036 18.9891C21.4195 18.8978 21.1139 18.8521 21.0069 18.7001C20.7308 18.3661 20.5781 17.9246 20.3793 17.529L19.1246 14.883C18.8493 14.2899 18.6805 13.6968 18.3444 13.1494C16.768 10.564 15.0539 8.99788 12.4219 7.46163C11.856 7.14225 11.1828 7.00488 10.4669 6.83788L9.31938 6.77663C9.07413 6.67025 8.8295 6.38113 8.61525 6.24413C7.743 5.69663 5.4935 4.51063 4.85025 6.07375C4.43713 7.06213 5.46263 8.03525 5.81075 8.53738C6.07138 8.88713 6.4075 9.28238 6.59163 9.67788C6.6945 9.93625 6.72888 10.2103 6.83625 10.484C7.08075 11.153 7.3105 11.8985 7.63188 12.5223C7.80338 12.8416 7.9835 13.1766 8.19775 13.4654C8.32025 13.6358 8.53463 13.7088 8.58025 13.9824C8.36588 14.2868 8.35113 14.7425 8.22863 15.1233C7.6775 16.8418 7.89188 18.9708 8.67213 20.236C8.91738 20.616 9.49525 21.4528 10.2794 21.1331C10.968 20.8594 10.8144 19.9926 11.0133 19.2321C11.0595 19.0499 11.0288 18.9281 11.1203 18.8061V18.8403L11.7479 20.1024C12.2223 20.8475 13.0489 21.6233 13.7371 22.1406C14.1041 22.4144 14.395 22.8861 14.8539 23.0531V23.0071H14.8238C14.7318 22.8708 14.5939 22.8094 14.4715 22.703C14.1961 22.4294 13.8901 22.0946 13.6758 21.7906C13.0334 20.9391 12.4675 19.996 11.9623 19.0229C11.7171 18.5515 11.5028 18.0344 11.3045 17.563C11.2119 17.3804 11.2119 17.1063 11.0593 17.0156C10.8294 17.3496 10.4934 17.6394 10.3243 18.0498C10.0334 18.7035 10.0033 19.5096 9.89625 20.3461C9.8345 20.3614 9.86188 20.3461 9.8345 20.3801C9.34538 20.2589 9.17663 19.7564 8.99325 19.331C8.53425 18.2513 8.45738 16.5176 8.85525 15.2705C8.96225 14.9511 9.42188 13.9474 9.23838 13.6433C9.14588 13.3543 8.8405 13.1873 8.67175 12.9589C8.47288 12.6699 8.25925 12.3051 8.12138 11.9858C7.75438 11.1336 7.57088 10.1911 7.17263 9.3395C6.9885 8.944 6.6675 8.53325 6.40713 8.16863C6.11625 7.75788 5.79563 7.46875 5.56588 6.98238C5.48938 6.812 5.38238 6.54138 5.50475 6.35863C5.535 6.237 5.59663 6.18825 5.7185 6.161C5.91725 5.9905 6.484 6.20663 6.68288 6.29725C7.24875 6.52563 7.72313 6.73838 8.1975 7.05738C8.41188 7.20938 8.64163 7.4985 8.917 7.57488H9.23875C9.7285 7.68113 10.279 7.60888 10.7375 7.74525C11.5488 8.00425 12.283 8.384 12.9415 8.795C14.9459 10.0573 16.599 11.8518 17.7156 13.9964C17.8991 14.3461 17.9756 14.6655 18.1444 15.0305C18.4661 15.776 18.864 16.5361 19.1846 17.2665C19.5064 17.9813 19.8123 18.7118 20.2713 19.3048C20.501 19.6241 21.4188 19.7911 21.8318 19.9585C22.138 20.0949 22.612 20.2176 22.8881 20.3846C23.408 20.704 23.9284 21.069 24.4178 21.4188C24.6623 21.6008 25.4279 21.9811 25.4734 22.2845L25.4751 22.2763ZM9.86975 9.06088C9.65839 9.05902 9.44767 9.08457 9.24288 9.13688V9.171H9.273C9.3955 9.41438 9.60988 9.58175 9.76275 9.79475L10.115 10.5248L10.1453 10.4908C10.3595 10.3388 10.4669 10.0954 10.4669 9.73075C10.375 9.62438 10.3599 9.51763 10.2834 9.41125C10.1915 9.25925 9.99263 9.18288 9.86975 9.06163V9.06088Z" fill="#00678C"/>
</g>
</g>
<defs>
<clipPath id="clip0_106_132">
<rect width="32" height="32" fill="white"/>
</clipPath>
</defs>
</svg>
