<svg width="32" height="32" viewBox="0 0 32 32" fill="none" xmlns="http://www.w3.org/2000/svg">
<path d="M16 30C15.6223 30.0001 15.2512 29.9008 14.924 29.712L11.5 27.685C10.989 27.399 11.238 27.298 11.407 27.239C11.9505 27.0711 12.4709 26.8359 12.956 26.539C12.9966 26.5202 13.0414 26.5121 13.086 26.5154C13.1306 26.5187 13.1737 26.5334 13.211 26.558L15.842 28.121C15.891 28.1469 15.9456 28.1605 16.001 28.1605C16.0565 28.1605 16.111 28.1469 16.16 28.121L26.42 22.199C26.468 22.1702 26.5078 22.1295 26.5353 22.0807C26.5628 22.032 26.5772 21.977 26.577 21.921V10.075C26.5771 10.0181 26.5625 9.96223 26.5346 9.91266C26.5068 9.8631 26.4666 9.82154 26.418 9.79199L16.158 3.87499C16.1096 3.84774 16.0551 3.83343 15.9995 3.83343C15.944 3.83343 15.8894 3.84774 15.841 3.87499L5.58703 9.79399C5.53812 9.82292 5.4975 9.86399 5.46912 9.91322C5.44074 9.96245 5.42555 10.0182 5.42503 10.075V21.916C5.42517 21.9718 5.44015 22.0266 5.46844 22.0748C5.49673 22.1229 5.53731 22.1627 5.58603 22.19L8.40003 23.814C9.92503 24.576 10.859 23.678 10.859 22.776V11.085C10.859 11.0054 10.8906 10.9291 10.9469 10.8729C11.0032 10.8166 11.0795 10.785 11.159 10.785H12.459C12.5386 10.785 12.6149 10.8166 12.6712 10.8729C12.7274 10.9291 12.759 11.0054 12.759 11.085V22.777C12.759 24.812 11.651 25.977 9.72103 25.977C8.88841 25.9915 8.06884 25.7688 7.35803 25.335L4.66103 23.788C4.33362 23.5973 4.06195 23.3241 3.87314 22.9956C3.68433 22.6671 3.58499 22.2949 3.58503 21.916V10.075C3.58406 9.69552 3.68298 9.32248 3.87185 8.99335C4.06073 8.66422 4.3329 8.3906 4.66103 8.19999L14.922 2.27599C15.2526 2.09516 15.6233 2.00038 16 2.00038C16.3768 2.00038 16.7475 2.09516 17.078 2.27599L27.338 8.19999C27.6654 8.39028 27.9371 8.66311 28.1261 8.99124C28.3151 9.31937 28.4147 9.69133 28.415 10.07V21.916C28.4145 22.2949 28.3148 22.667 28.1258 22.9954C27.9369 23.3238 27.6653 23.5971 27.338 23.788L17.078 29.712C16.7503 29.9011 16.3784 30.0004 16 30Z" fill="#83CD29"/>
<path d="M14.054 17.953C14.054 17.8734 14.0856 17.7971 14.1419 17.7409C14.1981 17.6846 14.2745 17.653 14.354 17.653H15.681C15.7519 17.6532 15.8204 17.6786 15.8745 17.7245C15.9285 17.7705 15.9644 17.834 15.976 17.904C16.176 19.255 16.776 19.936 19.489 19.936C21.65 19.936 22.571 19.447 22.571 18.3C22.571 17.639 22.31 17.148 18.951 16.819C16.143 16.541 14.407 15.919 14.407 13.675C14.407 11.605 16.152 10.37 19.077 10.37C22.364 10.37 23.991 11.511 24.197 13.959C24.2002 13.9999 24.1949 14.0409 24.1816 14.0797C24.1682 14.1185 24.1471 14.1541 24.1194 14.1843C24.0918 14.2146 24.0582 14.2389 24.0208 14.2557C23.9834 14.2725 23.943 14.2814 23.902 14.282H22.566C22.499 14.2811 22.4342 14.2577 22.382 14.2157C22.3298 14.1736 22.2932 14.1153 22.278 14.05C21.959 12.629 21.178 12.175 19.078 12.175C16.718 12.175 16.444 12.997 16.444 13.613C16.444 14.359 16.768 14.577 19.954 14.998C23.107 15.415 24.605 16.005 24.605 18.221C24.605 20.457 22.741 21.737 19.49 21.737C14.995 21.743 14.054 19.682 14.054 17.953Z" fill="#83CD29"/>
</svg>
