<svg width="32" height="32" viewBox="0 0 32 32" fill="none" xmlns="http://www.w3.org/2000/svg">
<path d="M16 18.474C17.3807 18.474 18.5 17.3547 18.5 15.974C18.5 14.5933 17.3807 13.474 16 13.474C14.6193 13.474 13.5 14.5933 13.5 15.974C13.5 17.3547 14.6193 18.474 16 18.474Z" fill="#00D8FF"/>
<path d="M16 21.706C12.9951 21.7787 9.9978 21.3736 7.12 20.506C5.79062 20.0846 4.55073 19.4207 3.463 18.548C3.04793 18.2498 2.70227 17.8654 2.44974 17.4211C2.19721 16.9768 2.04379 16.4832 2 15.974C2 14.321 3.816 12.701 6.858 11.641C9.81273 10.7017 12.8999 10.2465 16 10.293C19.0587 10.2503 22.1045 10.6972 25.022 11.617C26.3023 12.0252 27.5001 12.6569 28.56 13.483C28.968 13.7672 29.3084 14.1377 29.5573 14.5682C29.8061 14.9987 29.9573 15.4786 30 15.974C30 17.692 27.97 19.433 24.7 20.515C21.8779 21.3544 18.9438 21.756 16 21.706ZM16 11.489C13.0341 11.4493 10.0808 11.8821 7.251 12.771C4.451 13.748 3.196 15.084 3.196 15.971C3.196 16.899 4.545 18.358 7.507 19.371C10.2601 20.1968 13.1266 20.5813 16 20.51C18.8164 20.5604 21.6239 20.1793 24.325 19.38C27.4 18.361 28.8 16.9 28.8 15.974C28.7495 15.6562 28.6337 15.3524 28.4599 15.0816C28.2861 14.8109 28.058 14.5791 27.79 14.401C26.8418 13.6681 25.7717 13.1082 24.629 12.747C21.838 11.8707 18.925 11.4461 16 11.489Z" fill="#00D8FF"/>
<path d="M10.32 28.443C9.85348 28.4537 9.39248 28.3405 8.98398 28.115C7.55198 27.289 7.05598 24.907 7.65698 21.742C8.31962 18.7131 9.46778 15.8113 11.057 13.149C12.5477 10.4781 14.4562 8.06292 16.71 5.995C17.7031 5.08971 18.8488 4.36755 20.094 3.862C20.5443 3.65094 21.0356 3.54153 21.533 3.54153C22.0303 3.54153 22.5216 3.65094 22.972 3.862C24.461 4.72 24.954 7.348 24.259 10.721C23.5759 13.5856 22.4575 16.3284 20.943 18.854C19.5047 21.4934 17.6563 23.8875 15.467 25.947C14.4378 26.8878 13.2433 27.63 11.944 28.136C11.4238 28.3291 10.8747 28.4329 10.32 28.443ZM12.093 13.743C10.5771 16.2923 9.47664 19.0667 8.83298 21.962C8.27998 24.877 8.81098 26.63 9.58298 27.076C10.383 27.539 12.325 27.1 14.683 25.04C16.773 23.067 18.5372 20.7752 19.91 18.25C21.3609 15.8355 22.4337 13.2131 23.091 10.474C23.745 7.299 23.18 5.355 22.378 4.893C22.0774 4.77783 21.7562 4.72627 21.4346 4.74159C21.1131 4.75691 20.7983 4.83877 20.51 4.982C19.4017 5.43935 18.3827 6.08863 17.5 6.9C15.3466 8.88079 13.5237 11.1929 12.1 13.749L12.093 13.743Z" fill="#00D8FF"/>
<path d="M21.677 28.456C20.322 28.456 18.601 27.636 16.809 26.095C14.5157 24.0083 12.575 21.5644 11.062 18.858C9.49272 16.2324 8.35365 13.3725 7.68798 10.387C7.39929 9.07348 7.3458 7.71918 7.52998 6.38699C7.57257 5.8928 7.72305 5.41397 7.97082 4.98426C8.21859 4.55455 8.55761 4.18443 8.96398 3.89999C10.451 3.03899 12.974 3.92399 15.549 6.20999C17.6896 8.23218 19.5074 10.5707 20.939 13.144C22.5073 15.7083 23.6583 18.5055 24.349 21.431C24.6501 22.7927 24.6965 24.1984 24.486 25.577C24.4359 26.0854 24.2764 26.577 24.0186 27.018C23.7607 27.459 23.4105 27.839 22.992 28.132C22.5901 28.3547 22.1363 28.4665 21.677 28.456ZM12.097 18.256C13.5484 20.8424 15.4023 23.1814 17.589 25.185C19.838 27.12 21.622 27.536 22.389 27.085C23.189 26.62 23.779 24.722 23.171 21.651C22.5049 18.8579 21.4009 16.1879 19.9 13.74C18.5338 11.2771 16.7987 9.03786 14.755 7.09999C12.331 4.94799 10.365 4.46699 9.56398 4.93099C9.31433 5.13388 9.10945 5.38632 8.96229 5.67238C8.81513 5.95844 8.72888 6.27191 8.70898 6.59299C8.54999 7.78108 8.60178 8.9879 8.86198 10.158C9.50229 13.0131 10.5947 15.7476 12.098 18.258L12.097 18.256Z" fill="#00D8FF"/>
</svg>
