<svg width="32" height="32" viewBox="0 0 32 32" fill="none" xmlns="http://www.w3.org/2000/svg">
<g clip-path="url(#clip0_106_126)">
<path d="M24.5 0H7.5C3.35786 0 0 3.35786 0 7.5V24.5C0 28.6421 3.35786 32 7.5 32H24.5C28.6421 32 32 28.6421 32 24.5V7.5C32 3.35786 28.6421 0 24.5 0Z" fill="#764ABC"/>
<path d="M20.8224 20.6999C21.745 20.6044 22.4449 19.809 22.413 18.8546C22.3813 17.9002 21.5859 17.1367 20.6315 17.1367H20.5679C19.5816 17.1685 18.8181 17.9956 18.8499 18.9819C18.8818 19.4591 19.0726 19.8726 19.3589 20.159C18.2773 22.2905 16.623 23.8494 14.1415 25.1537C12.4554 26.0445 10.7056 26.3626 8.95589 26.14C7.52426 25.9491 6.41089 25.3127 5.71089 24.263C4.69289 22.7041 4.59751 21.018 5.45639 19.3319C6.06089 18.1229 7.01526 17.2321 7.61976 16.7867C7.49251 16.3732 7.30164 15.6732 7.20614 15.1642C2.59326 18.5047 3.07039 23.0222 4.47014 25.1537C5.52014 26.7444 7.65151 27.7306 10.0058 27.7306C10.642 27.7306 11.2783 27.667 11.9145 27.5079C15.9868 26.7126 19.0726 24.2947 20.8224 20.6999Z" fill="white"/>
<path d="M26.4215 16.755C24.0037 13.9235 20.4406 12.3647 16.3685 12.3647H15.8595C15.5731 11.792 14.9686 11.4102 14.3006 11.4102H14.237C13.2507 11.4421 12.4872 12.2692 12.519 13.2555C12.5509 14.2099 13.3461 14.9734 14.3006 14.9734H14.3642C15.0641 14.9416 15.6686 14.4962 15.9231 13.8917H16.4957C18.9135 13.8917 21.2041 14.5916 23.272 15.9596C24.8626 17.0095 26.008 18.3775 26.6442 20.0317C27.1851 21.3679 27.1532 22.6722 26.5806 23.7857C25.6899 25.4719 24.1946 26.3945 22.2221 26.3945C20.9496 26.3945 19.7407 26.0127 19.1044 25.7264C18.7545 26.0445 18.1182 26.5535 17.6729 26.8716C19.0407 27.5079 20.4406 27.8579 21.7767 27.8579C24.8309 27.8579 27.0896 26.1717 27.9486 24.4856C28.8712 22.6405 28.8076 19.4591 26.4215 16.755Z" fill="white"/>
<path d="M10.2602 21.2407C10.2921 22.1951 11.0874 22.9586 12.0419 22.9586H12.1055C13.0916 22.9268 13.8552 22.0996 13.8234 21.1134C13.7916 20.159 12.9962 19.3955 12.0419 19.3955H11.9781C11.9146 19.3955 11.8191 19.3955 11.7556 19.4274C10.4511 17.264 9.91037 14.9097 10.1012 12.3647C10.2285 10.456 10.8647 8.80162 11.9782 7.4335C12.9007 6.2565 14.6824 5.68387 15.8912 5.652C19.2635 5.58837 20.6951 9.78775 20.7905 11.4739C21.2041 11.5694 21.904 11.7921 22.3812 11.9511C21.9995 6.7975 18.8181 4.125 15.764 4.125C12.9007 4.125 10.2602 6.19287 9.21037 9.247C7.747 13.3191 8.70137 17.2321 10.4829 20.3181C10.3239 20.5408 10.2284 20.8907 10.2602 21.2407Z" fill="white"/>
</g>
<defs>
<clipPath id="clip0_106_126">
<rect width="32" height="32" fill="white"/>
</clipPath>
</defs>
</svg>
