<svg width="24" height="24" viewBox="0 0 24 24" fill="none" xmlns="http://www.w3.org/2000/svg">
<path d="M16.5132 7.80187C16.5132 7.80187 22.4176 6.78187 22.7607 7.23C23.1039 7.67812 23.1901 9.02812 23.0064 9.79125C22.8207 10.5562 22.1345 11.7356 20.1282 12.2906C18.4426 12.7556 17.8764 12.7575 17.0045 13.2769C16.3089 13.6912 15.2982 16.6725 15.1389 17.0962C14.9795 17.52 13.8189 19.1812 11.3907 18.8381C9.01885 18.5006 7.56385 16.275 8.06635 14.085C8.56885 11.895 16.5132 7.80187 16.5132 7.80187Z" fill="#A92813"/>
<path d="M12.21 13.2656C12.21 13.2656 8.90995 13.3444 7.88058 12.2625C6.8512 11.1806 5.76933 8.77875 5.4787 6.85125C5.18808 4.92375 4.23745 3.78938 3.78933 3.49875C3.3412 3.20813 2.87808 3.12938 2.82558 3.42C2.77308 3.71063 3.58871 4.68188 3.73683 5.13563C4.10621 6.27 3.90183 8.91 4.2112 10.125C4.52808 11.3681 4.77933 11.7938 5.4787 12.6056C5.99995 13.2113 6.82495 13.7944 6.82495 13.7944C6.82495 13.7944 3.63183 14.5594 2.73371 13.6088C1.83558 12.6581 1.94245 11.8669 2.0212 11.4713C2.09995 11.0756 2.73371 9.99375 2.54996 9.88688C2.36433 9.78188 1.20371 10.6781 1.04621 11.8669C0.888705 13.0556 1.28058 14.0456 1.94433 14.7713C2.80871 15.7144 4.44558 15.8737 5.3962 15.795C6.34683 15.7162 7.30308 15.405 7.30308 15.405C7.30308 15.405 7.27683 19.2844 5.42808 19.2581C4.02933 19.2375 3.86996 18.7838 3.73871 18.5456C3.60746 18.3075 3.47058 18.1106 3.53995 18.8681C3.58683 19.3687 4.17371 20.9137 6.01496 20.5181C7.57495 20.1825 8.54058 18.7481 8.85933 18.3075C9.20996 17.8256 10.02 16.7231 10.02 16.7231C10.02 16.7231 9.70683 18.8663 9.77433 20.3831C9.80245 21.0169 9.96745 22.5037 11.13 23.0044C12.2906 23.505 13.7756 22.8787 14.04 21.8756C14.3043 20.8725 13.77 20.3119 13.6893 20.2331C13.6087 20.1544 13.2412 21.3675 13.2412 21.3675C13.2412 21.3675 12.2906 22.0012 11.9212 21.5531C11.5518 21.105 12 17.6194 12.0525 16.8806C12.105 16.1419 12.87 16.8544 13.1343 17.2238C13.3987 17.5931 13.8281 18.51 14.4806 19.1512C15.5568 20.2106 16.725 20.67 18.3843 20.5425C20.1131 20.4094 21.1931 19.7306 21.7725 18.8606C22.3537 17.9887 22.4793 17.1244 22.2937 16.9669C22.1081 16.8094 20.8425 18.3338 20.5781 18.5438C20.3137 18.7556 17.6737 18.5438 17.3043 18.5438C16.935 18.5438 16.8562 17.8837 16.8562 17.8837C16.8562 17.8837 18.36 17.4881 18.8887 17.0925C19.4175 16.6969 20.8687 15.8644 20.9737 13.5019C21.0543 11.6794 20.9737 6.7875 21.1593 5.99625C21.345 5.205 22.0481 4.53563 21.8887 4.27125C21.7293 4.00688 21.0262 4.4475 20.9212 4.52625C20.8162 4.605 19.7062 5.13375 19.68 6.08438C19.6537 7.035 19.3368 13.8188 18.8081 14.3719C18.2793 14.9269 16.5637 16.035 15.615 15.9037C14.6643 15.7744 12.21 13.2656 12.21 13.2656Z" fill="#FFA8A8"/>
<path d="M22.215 16.935C21.8981 16.9088 21.6338 17.3306 21.3169 17.5688C21 17.8069 20.3663 18.4125 18.7031 18.36C17.04 18.3075 15.9319 16.485 15.9319 16.485C15.9319 16.485 16.4606 16.5375 17.0663 16.38C17.6738 16.2225 18.6375 15.7069 19.2431 14.6119C19.965 13.3106 19.8038 10.0988 19.8113 8.67188C19.8206 6.70125 20.4619 5.65313 20.7094 5.31938C21.1313 4.7475 21.8006 4.42125 21.8269 4.2375C21.8531 4.05188 20.9906 4.15875 20.4975 4.44938C19.95 4.77188 19.68 5.13563 19.68 5.13563C19.68 5.13563 18.4125 5.00438 17.7263 5.00438C17.04 5.00438 15.7219 5.10563 14.5725 5.37375C13.1606 5.70375 12.105 6.50813 11.8144 6.5625C11.8144 6.5625 10.8769 5.63063 9.33377 6.69375C7.72315 7.80188 8.88565 10.1513 8.88565 10.1513C8.88565 10.1513 8.8069 10.4906 8.38502 10.5994C7.77752 10.7569 6.86815 10.1644 6.53815 9.10875C6.26065 8.21813 6.32627 6.98438 6.06377 5.55938C5.7994 4.13438 5.0344 3.50063 4.34815 3.18375C3.6619 2.86688 2.79002 3.1575 2.92315 3.34125C3.0544 3.52688 4.05752 3.87 4.66502 4.97813C5.27252 6.08625 4.9819 8.67375 5.6419 10.5206C6.3019 12.3675 7.5169 12.975 7.5169 12.975C7.5169 12.975 6.83065 13.2919 6.46127 13.3706C6.0919 13.4494 5.08877 13.635 4.1644 13.4438C3.20252 13.245 2.55377 12.54 2.44877 11.7619C2.35877 11.1 2.7919 9.94125 2.55377 9.88688C2.31565 9.8325 1.4644 11.0475 1.43815 12.0506C1.4119 13.0538 2.1844 14.2144 3.34502 14.7694C4.50565 15.3244 6.93565 14.8219 6.93565 14.8219C6.93565 14.8219 6.7369 15.1256 6.71065 15.7069C6.6844 16.2881 6.34127 17.5875 5.72065 17.9644C5.29502 18.2231 4.91627 18.3075 4.78315 17.9644C4.6519 17.6213 5.32502 17.49 5.29877 17.1469C5.27252 16.8038 4.71752 16.7175 4.19065 17.0419C3.8344 17.2594 3.24002 18.045 3.6094 18.8888C3.97877 19.7325 4.89565 20.0306 5.90627 19.7606C7.41377 19.3575 9.15377 16.5675 9.7069 16.0913C10.2619 15.6169 10.6313 15.7481 10.6313 15.7481C10.6313 15.7481 10.3669 18.2025 10.4194 19.8656C10.4719 21.5287 11.535 22.6144 12.7163 22.4269C14.0363 22.215 14.115 21.1331 13.905 20.5519C13.7194 20.0438 13.02 19.8525 12.8231 19.9969C12.5663 20.1863 12.7369 20.4975 12.8363 20.5837C13.0744 20.7881 12.8756 21.2644 12.5063 21.1575C12.1369 21.0525 12.48 19.8113 12.6375 19.2038C12.795 18.5963 13.1663 17.1712 13.5881 17.0662C14.01 16.9613 14.4394 17.7019 14.8294 18.1481C15.4969 18.9131 16.5844 19.5075 18.135 19.5338C20.1844 19.5694 21.4538 18.3056 21.7444 17.9888C22.0294 17.6738 22.53 16.9613 22.215 16.935ZM17.4619 11.4188C18.0694 10.9969 18.5888 10.8038 18.5888 10.8038C18.5888 10.8038 18.6056 12.9675 17.7788 14.085C17.0944 15.0094 16.4325 14.7975 16.4325 14.7975C16.4325 14.7975 17.1131 14.4263 17.1713 13.7156C17.25 12.7388 16.2206 12.555 16.2206 12.555C16.2206 12.555 16.9331 11.7863 17.4619 11.4188Z" fill="#FF615E"/>
<path d="M21.0168 10.1119C21.0168 10.1119 23.1899 9.465 22.978 7.88063C22.7662 6.29625 21.1649 5.94563 21.1649 5.94563C21.1649 5.94563 20.9362 6.7725 20.9718 7.85438C20.9887 8.32875 21.0168 10.1119 21.0168 10.1119Z" fill="#FF615E"/>
<path d="M16.4119 14.175C16.17 14.5613 15.7575 14.6419 15.4575 14.4544C15.1575 14.2669 15.1106 13.89 15.3525 13.5038C15.5944 13.1175 16.0894 12.9431 16.3912 13.1306C16.6931 13.3181 16.6537 13.7888 16.4119 14.175ZM12.2494 11.9063C12.5869 11.8856 12.4744 11.55 12.4069 11.1019C12.3412 10.6538 12.0975 9.47438 12.7894 8.76563C13.3706 8.17125 14.0944 8.17875 14.6362 8.5275C15.045 8.79188 15.2306 8.89688 15.3881 8.7C15.4931 8.56875 15.3356 8.3175 15.0712 8.0925C14.7356 7.8075 13.5806 7.22063 12.4969 8.11875C11.4731 8.96813 11.6381 10.6125 11.7712 11.1806C11.9062 11.7488 12.0375 11.9194 12.2494 11.9063ZM8.93624 6.58688C8.24999 7.29938 8.10936 7.86938 8.18436 8.83125C8.24999 9.69 8.55374 10.3481 8.88374 10.2169C9.15936 10.1063 9.04124 9.59625 8.94936 9.33188C8.85749 9.0675 8.69811 7.8 9.37124 7.11375C10.0444 6.4275 10.8094 6.51938 11.1525 6.59813C11.4956 6.67688 11.64 6.75563 11.8125 6.55875C11.985 6.36188 11.6269 6.04313 11.2837 5.96438C10.9406 5.88563 9.84374 5.64563 8.93624 6.58688Z" fill="#A52914"/>
<path d="M15.3769 10.8113C15.3769 11.3588 14.9663 11.9081 14.4263 11.88C13.8976 11.8538 13.6482 11.3438 13.6482 10.7981C13.6482 10.2525 13.9651 9.80813 14.5201 9.76875C15.1519 9.72375 15.3769 10.2638 15.3769 10.8113Z" fill="#2C2B2D"/>
<path d="M20.7847 8.96394C20.8209 8.73798 20.6754 8.52673 20.4597 8.4921C20.244 8.45747 20.0397 8.61258 20.0034 8.83854C19.9671 9.0645 20.1126 9.27575 20.3284 9.31038C20.5441 9.345 20.7484 9.1899 20.7847 8.96394Z" fill="#FCD4B0"/>
<path d="M21.0839 6.40458C21.1626 6.1952 21.0786 5.96995 20.8964 5.90146C20.7142 5.83298 20.5027 5.94719 20.424 6.15657C20.3453 6.36594 20.4292 6.5912 20.6115 6.65969C20.7937 6.72817 21.0052 6.61396 21.0839 6.40458Z" fill="#FCD4B0"/>
<path d="M20.3924 12.3413C20.6596 12.3413 20.8762 12.1171 20.8762 11.8406C20.8762 11.5641 20.6596 11.34 20.3924 11.34C20.1253 11.34 19.9087 11.5641 19.9087 11.8406C19.9087 12.1171 20.1253 12.3413 20.3924 12.3413Z" fill="#FCD4B0"/>
<path d="M20.3831 14.9991C20.4999 14.7359 20.3935 14.4334 20.1455 14.3234C19.8975 14.2134 19.6018 14.3375 19.485 14.6007C19.3683 14.8638 19.4747 15.1663 19.7227 15.2764C19.9707 15.3864 20.2664 15.2622 20.3831 14.9991Z" fill="#FCD4B0"/>
<path d="M20.765 19.7235C20.9661 19.6379 21.067 19.4226 20.9904 19.2425C20.9137 19.0624 20.6886 18.9857 20.4876 19.0713C20.2865 19.1568 20.1856 19.3721 20.2623 19.5522C20.3389 19.7323 20.564 19.809 20.765 19.7235Z" fill="#FCD4B0"/>
<path d="M18.2963 20.4281C18.5438 20.4281 18.7444 20.2392 18.7444 20.0062C18.7444 19.7733 18.5438 19.5844 18.2963 19.5844C18.0488 19.5844 17.8481 19.7733 17.8481 20.0062C17.8481 20.2392 18.0488 20.4281 18.2963 20.4281Z" fill="#FCD4B0"/>
<path d="M15.8888 19.995C16.1269 19.995 16.32 19.7944 16.32 19.5469C16.32 19.2994 16.1269 19.0988 15.8888 19.0988C15.6506 19.0988 15.4575 19.2994 15.4575 19.5469C15.4575 19.7944 15.6506 19.995 15.8888 19.995Z" fill="#FCD4B0"/>
<path d="M11.4188 23.1112C11.6766 23.1112 11.8857 22.9064 11.8857 22.6537C11.8857 22.4011 11.6766 22.1962 11.4188 22.1962C11.1609 22.1962 10.9519 22.4011 10.9519 22.6537C10.9519 22.9064 11.1609 23.1112 11.4188 23.1112Z" fill="#FCD4B0"/>
<path d="M10.0759 20.4549C10.2557 20.4427 10.3881 20.2376 10.3718 19.9969C10.3554 19.7562 10.1964 19.5709 10.0167 19.5832C9.83689 19.5954 9.70442 19.8004 9.72078 20.0411C9.73713 20.2819 9.89612 20.4671 10.0759 20.4549Z" fill="#FCD4B0"/>
<path d="M7.91012 19.5481C8.10634 19.3668 8.13438 19.078 7.97274 18.9031C7.8111 18.7281 7.521 18.7333 7.32477 18.9146C7.12855 19.096 7.10052 19.3848 7.26215 19.5597C7.42379 19.7346 7.7139 19.7294 7.91012 19.5481Z" fill="#FCD4B0"/>
<path d="M5.31187 20.7375C5.57904 20.7375 5.79562 20.5402 5.79562 20.2969C5.79562 20.0535 5.57904 19.8563 5.31187 19.8563C5.04471 19.8563 4.82812 20.0535 4.82812 20.2969C4.82812 20.5402 5.04471 20.7375 5.31187 20.7375Z" fill="#FCD4B0"/>
<path d="M4.8187 15.8437C5.05687 15.8437 5.24995 15.6708 5.24995 15.4575C5.24995 15.2442 5.05687 15.0712 4.8187 15.0712C4.58053 15.0712 4.38745 15.2442 4.38745 15.4575C4.38745 15.6708 4.58053 15.8437 4.8187 15.8437Z" fill="#FCD4B0"/>
<path d="M2.97545 15.0328C3.08728 14.8391 3.01437 14.5876 2.81259 14.4711C2.61081 14.3546 2.35657 14.4172 2.24474 14.6109C2.1329 14.8046 2.20581 15.0561 2.40759 15.1726C2.60937 15.2891 2.86361 15.2265 2.97545 15.0328Z" fill="#FCD4B0"/>
<path d="M1.43896 13.5651C1.61877 13.496 1.69952 13.2708 1.61933 13.062C1.53914 12.8532 1.32837 12.7399 1.14856 12.8089C0.968759 12.878 0.888006 13.1032 0.968197 13.312C1.04839 13.5208 1.25916 13.6341 1.43896 13.5651Z" fill="#FCD4B0"/>
<path d="M4.72492 10.0856C4.95378 10.0856 5.1393 9.89255 5.1393 9.65438C5.1393 9.4162 4.95378 9.22313 4.72492 9.22313C4.49607 9.22313 4.31055 9.4162 4.31055 9.65438C4.31055 9.89255 4.49607 10.0856 4.72492 10.0856Z" fill="#FCD4B0"/>
<path d="M4.49436 7.60688C4.71803 7.60688 4.89936 7.418 4.89936 7.185C4.89936 6.95201 4.71803 6.76313 4.49436 6.76313C4.27068 6.76313 4.08936 6.95201 4.08936 7.185C4.08936 7.418 4.27068 7.60688 4.49436 7.60688Z" fill="#FCD4B0"/>
<path d="M4.2995 5.35642C4.48486 5.28452 4.57108 5.0611 4.49207 4.85739C4.41306 4.65367 4.19874 4.54682 4.01337 4.61871C3.82801 4.69061 3.74179 4.91403 3.8208 5.11774C3.89981 5.32146 4.11413 5.42831 4.2995 5.35642Z" fill="#FCD4B0"/>
</svg>
