<svg width="32" height="32" viewBox="0 0 32 32" fill="none" xmlns="http://www.w3.org/2000/svg">
<path d="M24.612 10.929V21.016L16.041 26.087L15.964 26.157V29.927L16.041 30L28.112 23.028V8.972L28 8.945L24.6 10.845L24.617 10.927" fill="#2F406A"/>
<path d="M7.443 21.1L16.043 26.088V30L3.888 23V9L4.013 8.981L7.406 10.954L7.443 11.067V21.1Z" fill="#2379BD"/>
<path d="M7.443 11.067L3.888 9L16.014 2L28.114 8.972L24.614 10.929L16.014 6.023L7.443 11.067Z" fill="#03AFEF"/>
<path d="M15.894 19.945L15.801 19.845V16.062L15.894 16.014L15.917 15.921L19.164 14.027L19.264 14.049V17.949L15.895 19.942" fill="#2F406A"/>
<path d="M12.469 18.073V14.021H12.563L15.863 15.943L15.891 16.019V19.95L12.466 18.078" fill="#2379BD"/>
<path d="M15.838 12.027L12.469 14.02L15.894 16.013L19.263 14.048L15.838 12.027Z" fill="#03AFEF"/>
<path d="M11.7 22.415L11.607 22.315V18.533L11.7 18.485L11.723 18.392L14.971 16.5L15.071 16.522V20.422L11.7 22.415Z" fill="#2F406A"/>
<path d="M8.276 20.544V16.491H8.37L11.67 18.413L11.698 18.489V22.42L8.276 20.544Z" fill="#2379BD"/>
<path d="M11.645 14.5L8.276 16.491L11.7 18.485L15.07 16.52L11.645 14.5Z" fill="#03AFEF"/>
<path d="M20.386 22.509L20.293 22.409V18.626L20.386 18.578L20.409 18.485L23.656 16.591L23.756 16.613V20.513L20.387 22.506" fill="#2F406A"/>
<path d="M16.961 20.637V16.585H17.055L20.355 18.507L20.383 18.583V22.514L16.958 20.642" fill="#2379BD"/>
<path d="M20.33 14.592L16.961 16.585L20.386 18.578L23.755 16.613L20.33 14.592Z" fill="#03AFEF"/>
<path d="M16.193 24.98L16.1 24.88V21.1L16.193 21.052L16.216 20.959L19.463 19.065L19.563 19.087V22.987L16.193 24.98Z" fill="#2F406A"/>
<path d="M12.768 23.108V19.056H12.862L16.162 20.978L16.19 21.054V24.98L12.765 23.108" fill="#2379BD"/>
<path d="M16.137 17.062L12.768 19.055L16.193 21.048L19.562 19.083L16.137 17.062Z" fill="#03AFEF"/>
<path d="M15.894 14.573L15.801 14.473V10.69L15.894 10.642L15.917 10.549L19.164 8.655L19.264 8.677V12.577L15.895 14.57" fill="#2F406A"/>
<path d="M12.469 12.7V8.649H12.563L15.863 10.571L15.891 10.647V14.578L12.469 12.7Z" fill="#2379BD"/>
<path d="M15.838 6.656L12.469 8.649L15.894 10.642L19.263 8.677L15.838 6.656Z" fill="#03AFEF"/>
<path d="M11.7 17.044L11.607 16.944V13.161L11.7 13.113L11.723 13.02L14.97 11.126L15.07 11.148V15.048L11.7 17.044Z" fill="#2F406A"/>
<path d="M8.276 15.172V11.12H8.37L11.67 13.042L11.698 13.118V17.049L8.276 15.172Z" fill="#2379BD"/>
<path d="M11.645 9.126L8.276 11.12L11.7 13.113L15.069 11.148L11.645 9.126Z" fill="#03AFEF"/>
<path d="M20.386 17.137L20.293 17.037V13.255L20.386 13.207L20.409 13.114L23.656 11.22L23.756 11.242V15.142L20.387 17.135" fill="#2F406A"/>
<path d="M16.961 15.266V11.213H17.055L20.355 13.135L20.383 13.211V17.142L16.958 15.27" fill="#2379BD"/>
<path d="M20.33 9.22L16.961 11.213L20.386 13.206L23.755 11.241L20.33 9.22Z" fill="#03AFEF"/>
<path d="M16.193 19.608L16.1 19.508V15.725L16.193 15.677L16.216 15.584L19.463 13.69L19.563 13.712V17.612L16.194 19.605" fill="#2F406A"/>
<path d="M12.768 17.736V13.684H12.862L16.162 15.606L16.19 15.682V19.613L12.765 17.741" fill="#2379BD"/>
<path d="M16.137 11.691L12.768 13.684L16.193 15.677L19.562 13.712L16.137 11.69" fill="#03AFEF"/>
</svg>
