<svg width="32" height="32" viewBox="0 0 32 32" fill="none" xmlns="http://www.w3.org/2000/svg">
<g clip-path="url(#clip0_107_146)">
<path d="M2.5 0H29.5C30.8808 0 32 1.11925 32 2.5V29.5C32 30.8808 30.8808 32 29.5 32H2.5C1.11925 32 0 30.8808 0 29.5V2.5C0 1.11925 1.11925 0 2.5 0Z" fill="#3178C6"/>
<path d="M18.8148 25.0594V28.5119C19.3763 28.7996 20.0404 29.0154 20.807 29.1593C21.5736 29.3031 22.3816 29.375 23.2311 29.375C24.0589 29.375 24.8454 29.2959 25.5904 29.1376C26.3354 28.9794 26.9888 28.7186 27.5501 28.3555C28.1116 27.9922 28.5561 27.5175 28.8838 26.9312C29.2113 26.3451 29.375 25.6205 29.375 24.7574C29.375 24.1316 29.2814 23.5831 29.0942 23.112C28.9092 22.6441 28.634 22.217 28.2844 21.8551C27.9317 21.4883 27.5088 21.1592 27.0158 20.8679C26.5226 20.5766 25.9665 20.3015 25.3474 20.0426C24.8939 19.8555 24.4873 19.674 24.1273 19.4977C23.7674 19.3215 23.4614 19.1417 23.2095 18.9583C22.9575 18.7749 22.7631 18.5806 22.6264 18.3756C22.4896 18.1706 22.4212 17.9388 22.4212 17.6798C22.4212 17.4424 22.4824 17.2285 22.6047 17.0379C22.7271 16.8472 22.9 16.6836 23.1231 16.547C23.3463 16.4103 23.6198 16.3042 23.9438 16.2286C24.2676 16.1531 24.6276 16.1154 25.0235 16.1154C25.3115 16.1154 25.6156 16.137 25.9359 16.1801C26.2563 16.2232 26.5784 16.2897 26.9024 16.3797C27.2253 16.4693 27.5411 16.5829 27.8471 16.7196C28.1438 16.8511 28.4276 17.01 28.6947 17.1943V13.9684C28.1693 13.767 27.5951 13.6178 26.9725 13.5206C26.3499 13.4235 25.6354 13.375 24.8291 13.375C24.0085 13.375 23.2311 13.4631 22.4969 13.6394C21.7626 13.8155 21.1165 14.0906 20.5586 14.4646C20.0007 14.8388 19.5599 15.3152 19.2359 15.8942C18.912 16.4732 18.75 17.1655 18.75 17.9711C18.75 18.9996 19.0469 19.8771 19.6409 20.6036C20.2347 21.33 21.1362 21.945 22.3456 22.4485C22.7921 22.6303 23.2349 22.821 23.6737 23.0204C24.0841 23.2074 24.4386 23.4015 24.7374 23.6029C25.0361 23.8042 25.2719 24.0236 25.4446 24.261C25.6174 24.4984 25.7038 24.7681 25.7038 25.0702C25.7052 25.2877 25.6493 25.5017 25.5417 25.6906C25.4339 25.8811 25.27 26.0466 25.0505 26.1869C24.831 26.3271 24.5574 26.4367 24.2299 26.5159C23.9024 26.595 23.519 26.6346 23.0799 26.6346C22.3313 26.6346 21.5899 26.5034 20.8556 26.2407C20.1213 25.9782 19.441 25.5845 18.8148 25.0594ZM13.0603 16.4678H17.5V13.625H5.125V16.4678H9.54313V29.125H13.0603V16.4678Z" fill="white"/>
</g>
<defs>
<clipPath id="clip0_107_146">
<rect width="32" height="32" fill="white"/>
</clipPath>
</defs>
</svg>
