<svg width="24" height="25" viewBox="0 0 24 25" fill="none" xmlns="http://www.w3.org/2000/svg">
<g clip-path="url(#clip0_173_698)">
<path d="M0.0965625 11.919C0.096 14.0195 0.627 16.0704 1.63669 17.8782L0 24.0547L6.1155 22.3974C7.80696 23.3491 9.70213 23.8478 11.628 23.848H11.6331C17.9907 23.848 23.166 18.5008 23.1687 11.9284C23.1699 8.7436 21.9711 5.74884 19.7929 3.49574C17.6151 1.24283 14.7187 0.00145349 11.6326 0C5.27419 0 0.0992813 5.3469 0.0966563 11.919" fill="url(#paint0_linear_173_698)"/>
<path d="M0.100313 12.3465C0.0996563 14.5226 0.649687 16.6469 1.69537 18.5194L0 24.9173L6.33478 23.2006C8.08022 24.1842 10.0454 24.7028 12.0451 24.7036H12.0502C18.636 24.7036 23.9972 19.1641 24 12.3564C24.0011 9.05717 22.7591 5.95475 20.5031 3.62093C18.2468 1.2874 15.2468 0.00135659 12.0502 0C5.46337 0 0.102938 5.53876 0.100313 12.3465ZM3.87281 18.1969L3.63628 17.8088C2.64197 16.1747 2.11716 14.2863 2.11791 12.3473C2.12006 6.68886 6.57544 2.08527 12.054 2.08527C14.7071 2.08643 17.2005 3.15543 19.0759 5.09496C20.9512 7.03469 21.9831 9.61318 21.9824 12.3556C21.98 18.0141 17.5245 22.6182 12.0502 22.6182H12.0463C10.2638 22.6172 8.51569 22.1225 6.99113 21.1875L6.62831 20.9651L2.86912 21.9838L3.87281 18.1968V18.1969Z" fill="url(#paint1_linear_173_698)"/>
<path d="M9.06358 7.18489C8.8399 6.67103 8.60449 6.66066 8.39177 6.65165C8.21758 6.6439 8.01846 6.64448 7.81952 6.64448C7.6204 6.64448 7.29687 6.7219 7.0234 7.03053C6.74965 7.33944 5.97827 8.08595 5.97827 9.60427C5.97827 11.1227 7.04824 12.59 7.1974 12.7961C7.34674 13.0018 9.26299 16.2173 12.2979 17.4544C14.8201 18.4824 15.3334 18.2779 15.8808 18.2264C16.4283 18.175 17.6474 17.48 17.8961 16.7594C18.1451 16.0389 18.1451 15.4212 18.0704 15.2922C17.9958 15.1636 17.7967 15.0863 17.4981 14.9321C17.1994 14.7777 15.7315 14.0311 15.4578 13.9281C15.1841 13.8252 14.985 13.7738 14.7859 14.0829C14.5868 14.3914 14.015 15.0863 13.8407 15.2922C13.6666 15.4985 13.4923 15.5241 13.1938 15.3698C12.8951 15.2149 11.9335 14.8894 10.7926 13.8382C9.90499 13.0202 9.30574 12.01 9.13155 11.701C8.95737 11.3924 9.1129 11.2252 9.26262 11.0714C9.39677 10.9331 9.5613 10.7111 9.71074 10.5309C9.85962 10.3507 9.9093 10.2221 10.0089 10.0163C10.1085 9.81027 10.0586 9.63004 9.98412 9.47568C9.9093 9.32132 9.32908 7.79506 9.06358 7.18489Z" fill="white"/>
</g>
<defs>
<linearGradient id="paint0_linear_173_698" x1="1158.44" y1="2405.47" x2="1158.44" y2="0" gradientUnits="userSpaceOnUse">
<stop stop-color="#1FAF38"/>
<stop offset="1" stop-color="#60D669"/>
</linearGradient>
<linearGradient id="paint1_linear_173_698" x1="1200" y1="2491.73" x2="1200" y2="0" gradientUnits="userSpaceOnUse">
<stop stop-color="#F9F9F9"/>
<stop offset="1" stop-color="white"/>
</linearGradient>
<clipPath id="clip0_173_698">
<rect width="24" height="25" fill="white"/>
</clipPath>
</defs>
</svg>
